<?xml version="1.0" encoding="us-ascii" standalone="no"?><svg xmlns="http://www.w3.org/2000/svg" xmlns:xlink="http://www.w3.org/1999/xlink" contentStyleType="text/css" height="1010px" preserveAspectRatio="none" style="width:1287px;height:1010px;background:#FFFFFF;" version="1.1" viewBox="0 0 1287 1010" width="1287px" zoomAndPan="magnify"><defs/><g><text fill="#000000" font-family="sans-serif" font-size="14" font-weight="bold" lengthAdjust="spacing" textLength="498.8125" x="390.0938" y="29.5332">&#26657;&#22253;&#36164;&#28304;&#39044;&#32422;&#27969;&#31243;&#39034;&#24207;&#22270; (Campus Resource Booking Sequence Diagram)</text><line style="stroke:#181818;stroke-width:0.5;stroke-dasharray:5.0,5.0;" x1="22" x2="22" y1="121.2188" y2="928.0078"/><line style="stroke:#181818;stroke-width:0.5;stroke-dasharray:5.0,5.0;" x1="315" x2="315" y1="121.2188" y2="928.0078"/><line style="stroke:#181818;stroke-width:0.5;stroke-dasharray:5.0,5.0;" x1="534.5" x2="534.5" y1="121.2188" y2="928.0078"/><line style="stroke:#181818;stroke-width:0.5;stroke-dasharray:5.0,5.0;" x1="692.5" x2="692.5" y1="121.2188" y2="928.0078"/><line style="stroke:#181818;stroke-width:0.5;stroke-dasharray:5.0,5.0;" x1="830" x2="830" y1="121.2188" y2="928.0078"/><line style="stroke:#181818;stroke-width:0.5;stroke-dasharray:5.0,5.0;" x1="944" x2="944" y1="121.2188" y2="928.0078"/><line style="stroke:#181818;stroke-width:0.5;stroke-dasharray:5.0,5.0;" x1="1053" x2="1053" y1="121.2188" y2="928.0078"/><line style="stroke:#181818;stroke-width:0.5;stroke-dasharray:5.0,5.0;" x1="1193" x2="1193" y1="121.2188" y2="928.0078"/><text fill="#000000" font-family="sans-serif" font-size="14" lengthAdjust="spacing" textLength="29" x="5" y="118.1426">User</text><ellipse cx="22.5" cy="52.1094" fill="#E2E2F0" rx="8" ry="8" style="stroke:#181818;stroke-width:0.5;"/><path d="M22.5,60.1094 L22.5,87.1094 M9.5,68.1094 L35.5,68.1094 M22.5,87.1094 L9.5,102.1094 M22.5,87.1094 L35.5,102.1094 " fill="none" style="stroke:#181818;stroke-width:0.5;"/><text fill="#000000" font-family="sans-serif" font-size="14" lengthAdjust="spacing" textLength="29" x="5" y="941.541">User</text><ellipse cx="22.5" cy="953.1172" fill="#E2E2F0" rx="8" ry="8" style="stroke:#181818;stroke-width:0.5;"/><path d="M22.5,961.1172 L22.5,988.1172 M9.5,969.1172 L35.5,969.1172 M22.5,988.1172 L9.5,1003.1172 M22.5,988.1172 L35.5,1003.1172 " fill="none" style="stroke:#181818;stroke-width:0.5;"/><rect fill="#E2E2F0" height="49.2188" rx="2.5" ry="2.5" style="stroke:#181818;stroke-width:0.5;" width="77" x="277" y="71"/><text fill="#000000" font-family="sans-serif" font-size="14" lengthAdjust="spacing" textLength="56" x="287.5" y="92.5332">&#21069;&#31471;&#39029;&#38754;</text><text fill="#000000" font-family="sans-serif" font-size="14" lengthAdjust="spacing" textLength="63" x="284" y="110.1426">(React UI)</text><rect fill="#E2E2F0" height="49.2188" rx="2.5" ry="2.5" style="stroke:#181818;stroke-width:0.5;" width="77" x="277" y="927.0078"/><text fill="#000000" font-family="sans-serif" font-size="14" lengthAdjust="spacing" textLength="56" x="287.5" y="948.541">&#21069;&#31471;&#39029;&#38754;</text><text fill="#000000" font-family="sans-serif" font-size="14" lengthAdjust="spacing" textLength="63" x="284" y="966.1504">(React UI)</text><rect fill="#E2E2F0" height="31.6094" rx="2.5" ry="2.5" style="stroke:#181818;stroke-width:0.5;" width="96" x="486.5" y="88.6094"/><text fill="#000000" font-family="sans-serif" font-size="14" lengthAdjust="spacing" textLength="82" x="493.5" y="110.1426">ApiController</text><rect fill="#E2E2F0" height="31.6094" rx="2.5" ry="2.5" style="stroke:#181818;stroke-width:0.5;" width="96" x="486.5" y="927.0078"/><text fill="#000000" font-family="sans-serif" font-size="14" lengthAdjust="spacing" textLength="82" x="493.5" y="948.541">ApiController</text><rect fill="#E2E2F0" height="31.6094" rx="2.5" ry="2.5" style="stroke:#181818;stroke-width:0.5;" width="112" x="636.5" y="88.6094"/><text fill="#000000" font-family="sans-serif" font-size="14" lengthAdjust="spacing" textLength="98" x="643.5" y="110.1426">BookingService</text><rect fill="#E2E2F0" height="31.6094" rx="2.5" ry="2.5" style="stroke:#181818;stroke-width:0.5;" width="112" x="636.5" y="927.0078"/><text fill="#000000" font-family="sans-serif" font-size="14" lengthAdjust="spacing" textLength="98" x="643.5" y="948.541">BookingService</text><rect fill="#E2E2F0" height="31.6094" rx="2.5" ry="2.5" style="stroke:#181818;stroke-width:0.5;" width="109" x="776" y="88.6094"/><text fill="#000000" font-family="sans-serif" font-size="14" lengthAdjust="spacing" textLength="95" x="783" y="110.1426">ResourceRepo</text><rect fill="#E2E2F0" height="31.6094" rx="2.5" ry="2.5" style="stroke:#181818;stroke-width:0.5;" width="109" x="776" y="927.0078"/><text fill="#000000" font-family="sans-serif" font-size="14" lengthAdjust="spacing" textLength="95" x="783" y="948.541">ResourceRepo</text><rect fill="#E2E2F0" height="31.6094" rx="2.5" ry="2.5" style="stroke:#181818;stroke-width:0.5;" width="99" x="895" y="88.6094"/><text fill="#000000" font-family="sans-serif" font-size="14" lengthAdjust="spacing" textLength="85" x="902" y="110.1426">BookingRepo</text><rect fill="#E2E2F0" height="31.6094" rx="2.5" ry="2.5" style="stroke:#181818;stroke-width:0.5;" width="99" x="895" y="927.0078"/><text fill="#000000" font-family="sans-serif" font-size="14" lengthAdjust="spacing" textLength="85" x="902" y="948.541">BookingRepo</text><rect fill="#E2E2F0" height="31.6094" rx="2.5" ry="2.5" style="stroke:#181818;stroke-width:0.5;" width="98" x="1004" y="88.6094"/><text fill="#000000" font-family="sans-serif" font-size="14" lengthAdjust="spacing" textLength="84" x="1011" y="110.1426">PenaltyPolicy</text><rect fill="#E2E2F0" height="31.6094" rx="2.5" ry="2.5" style="stroke:#181818;stroke-width:0.5;" width="98" x="1004" y="927.0078"/><text fill="#000000" font-family="sans-serif" font-size="14" lengthAdjust="spacing" textLength="84" x="1011" y="948.541">PenaltyPolicy</text><rect fill="#E2E2F0" height="31.6094" rx="2.5" ry="2.5" style="stroke:#181818;stroke-width:0.5;" width="163" x="1112" y="88.6094"/><text fill="#000000" font-family="sans-serif" font-size="14" lengthAdjust="spacing" textLength="149" x="1119" y="110.1426">CreditHistoryRepository</text><rect fill="#E2E2F0" height="31.6094" rx="2.5" ry="2.5" style="stroke:#181818;stroke-width:0.5;" width="163" x="1112" y="927.0078"/><text fill="#000000" font-family="sans-serif" font-size="14" lengthAdjust="spacing" textLength="149" x="1119" y="948.541">CreditHistoryRepository</text><rect fill="#EEEEEE" height="3" style="stroke:#EEEEEE;stroke-width:1.0;" width="1280" x="0" y="152.3945"/><line style="stroke:#000000;stroke-width:1.0;" x1="0" x2="1280" y1="152.3945" y2="152.3945"/><line style="stroke:#000000;stroke-width:1.0;" x1="0" x2="1280" y1="155.3945" y2="155.3945"/><rect fill="#EEEEEE" height="24.3516" style="stroke:#000000;stroke-width:2.0;" width="98.4375" x="590.7813" y="141.2188"/><text fill="#000000" font-family="sans-serif" font-size="13" font-weight="bold" lengthAdjust="spacing" textLength="80.4375" x="596.7813" y="158.7139">&#29992;&#25143;&#25552;&#20132;&#39044;&#32422;</text><polygon fill="#181818" points="303.5,193.9219,313.5,197.9219,303.5,201.9219,307.5,197.9219" style="stroke:#181818;stroke-width:1.0;"/><line style="stroke:#181818;stroke-width:1.0;" x1="22.5" x2="309.5" y1="197.9219" y2="197.9219"/><text fill="#000000" font-family="sans-serif" font-size="13" lengthAdjust="spacing" textLength="269" x="29.5" y="193.0654">&#22635;&#20889;&#39044;&#32422;&#20449;&#24687; (resourceId, startTime, endTime)</text><polygon fill="#181818" points="522.5,240.625,532.5,244.625,522.5,248.625,526.5,244.625" style="stroke:#181818;stroke-width:1.0;"/><line style="stroke:#181818;stroke-width:1.0;" x1="315.5" x2="528.5" y1="244.625" y2="244.625"/><text fill="#000000" font-family="sans-serif" font-size="13" lengthAdjust="spacing" textLength="116" x="322.5" y="223.417">POST /api/bookings</text><text fill="#000000" font-family="sans-serif" font-size="13" lengthAdjust="spacing" textLength="141" x="322.5" y="239.7686">(CreateBookingRequest)</text><polygon fill="#181818" points="680.5,270.9766,690.5,274.9766,680.5,278.9766,684.5,274.9766" style="stroke:#181818;stroke-width:1.0;"/><line style="stroke:#181818;stroke-width:1.0;" x1="534.5" x2="686.5" y1="274.9766" y2="274.9766"/><text fill="#000000" font-family="sans-serif" font-size="13" lengthAdjust="spacing" textLength="134" x="541.5" y="270.1201">createBooking(request)</text><rect fill="#EEEEEE" height="3" style="stroke:#EEEEEE;stroke-width:1.0;" width="1280" x="0" y="304.1523"/><line style="stroke:#000000;stroke-width:1.0;" x1="0" x2="1280" y1="304.1523" y2="304.1523"/><line style="stroke:#000000;stroke-width:1.0;" x1="0" x2="1280" y1="307.1523" y2="307.1523"/><rect fill="#EEEEEE" height="24.3516" style="stroke:#000000;stroke-width:2.0;" width="125.25" x="577.375" y="292.9766"/><text fill="#000000" font-family="sans-serif" font-size="13" font-weight="bold" lengthAdjust="spacing" textLength="107.25" x="583.375" y="310.4717">&#26381;&#21153;&#31471;&#39564;&#35777;&#19982;&#21019;&#24314;</text><polygon fill="#181818" points="818.5,345.6797,828.5,349.6797,818.5,353.6797,822.5,349.6797" style="stroke:#181818;stroke-width:1.0;"/><line style="stroke:#181818;stroke-width:1.0;" x1="692.5" x2="824.5" y1="349.6797" y2="349.6797"/><text fill="#000000" font-family="sans-serif" font-size="13" lengthAdjust="spacing" textLength="114" x="699.5" y="344.8232">findById(resourceId)</text><polygon fill="#181818" points="703.5,376.0313,693.5,380.0313,703.5,384.0313,699.5,380.0313" style="stroke:#181818;stroke-width:1.0;"/><line style="stroke:#181818;stroke-width:1.0;stroke-dasharray:2.0,2.0;" x1="697.5" x2="829.5" y1="380.0313" y2="380.0313"/><text fill="#000000" font-family="sans-serif" font-size="13" lengthAdjust="spacing" textLength="89" x="709.5" y="375.1748">ResourceEntity</text><polygon fill="#181818" points="932.5,406.3828,942.5,410.3828,932.5,414.3828,936.5,410.3828" style="stroke:#181818;stroke-width:1.0;"/><line style="stroke:#181818;stroke-width:1.0;" x1="692.5" x2="938.5" y1="410.3828" y2="410.3828"/><text fill="#000000" font-family="sans-serif" font-size="13" lengthAdjust="spacing" textLength="81" x="699.5" y="405.5264">save(Booking)</text><polygon fill="#181818" points="703.5,436.7344,693.5,440.7344,703.5,444.7344,699.5,440.7344" style="stroke:#181818;stroke-width:1.0;"/><line style="stroke:#181818;stroke-width:1.0;stroke-dasharray:2.0,2.0;" x1="697.5" x2="943.5" y1="440.7344" y2="440.7344"/><text fill="#000000" font-family="sans-serif" font-size="13" lengthAdjust="spacing" textLength="178" x="709.5" y="435.8779">Booking{id, status=CREATED}</text><polygon fill="#181818" points="1181.5,467.0859,1191.5,471.0859,1181.5,475.0859,1185.5,471.0859" style="stroke:#181818;stroke-width:1.0;"/><line style="stroke:#181818;stroke-width:1.0;" x1="692.5" x2="1187.5" y1="471.0859" y2="471.0859"/><text fill="#000000" font-family="sans-serif" font-size="13" lengthAdjust="spacing" textLength="297" x="699.5" y="466.2295">addCreditHistory(user, reason="&#39044;&#32422;&#25104;&#21151;", delta=0)</text><polygon fill="#181818" points="545.5,497.4375,535.5,501.4375,545.5,505.4375,541.5,501.4375" style="stroke:#181818;stroke-width:1.0;"/><line style="stroke:#181818;stroke-width:1.0;stroke-dasharray:2.0,2.0;" x1="539.5" x2="691.5" y1="501.4375" y2="501.4375"/><text fill="#000000" font-family="sans-serif" font-size="13" lengthAdjust="spacing" textLength="105" x="551.5" y="496.5811">BookingResponse</text><polygon fill="#181818" points="326.5,527.7891,316.5,531.7891,326.5,535.7891,322.5,531.7891" style="stroke:#181818;stroke-width:1.0;"/><line style="stroke:#181818;stroke-width:1.0;stroke-dasharray:2.0,2.0;" x1="320.5" x2="533.5" y1="531.7891" y2="531.7891"/><text fill="#000000" font-family="sans-serif" font-size="13" lengthAdjust="spacing" textLength="178" x="332.5" y="526.9326">HTTP 200 + BookingResponse</text><polygon fill="#181818" points="33.5,558.1406,23.5,562.1406,33.5,566.1406,29.5,562.1406" style="stroke:#181818;stroke-width:1.0;"/><line style="stroke:#181818;stroke-width:1.0;stroke-dasharray:2.0,2.0;" x1="27.5" x2="314.5" y1="562.1406" y2="562.1406"/><text fill="#000000" font-family="sans-serif" font-size="13" lengthAdjust="spacing" textLength="86" x="39.5" y="557.2842">&#26174;&#31034;&#8220;&#39044;&#32422;&#25104;&#21151;&#8221;</text><rect fill="#EEEEEE" height="3" style="stroke:#EEEEEE;stroke-width:1.0;" width="1280" x="0" y="591.3164"/><line style="stroke:#000000;stroke-width:1.0;" x1="0" x2="1280" y1="591.3164" y2="591.3164"/><line style="stroke:#000000;stroke-width:1.0;" x1="0" x2="1280" y1="594.3164" y2="594.3164"/><rect fill="#EEEEEE" height="24.3516" style="stroke:#000000;stroke-width:2.0;" width="85.0313" x="597.4844" y="580.1406"/><text fill="#000000" font-family="sans-serif" font-size="13" font-weight="bold" lengthAdjust="spacing" textLength="67.0313" x="603.4844" y="597.6357">&#39044;&#32422;&#32467;&#26463;&#21518;</text><polygon fill="#181818" points="303.5,632.8438,313.5,636.8438,303.5,640.8438,307.5,636.8438" style="stroke:#181818;stroke-width:1.0;"/><line style="stroke:#181818;stroke-width:1.0;" x1="22.5" x2="309.5" y1="636.8438" y2="636.8438"/><text fill="#000000" font-family="sans-serif" font-size="13" lengthAdjust="spacing" textLength="86" x="29.5" y="631.9873">&#28857;&#20987;&#8220;&#23436;&#25104;&#39044;&#32422;&#8221;</text><polygon fill="#181818" points="522.5,663.1953,532.5,667.1953,522.5,671.1953,526.5,667.1953" style="stroke:#181818;stroke-width:1.0;"/><line style="stroke:#181818;stroke-width:1.0;" x1="315.5" x2="528.5" y1="667.1953" y2="667.1953"/><text fill="#000000" font-family="sans-serif" font-size="13" lengthAdjust="spacing" textLength="195" x="322.5" y="662.3389">POST /api/bookings/{id}/complete</text><polygon fill="#181818" points="680.5,693.5469,690.5,697.5469,680.5,701.5469,684.5,697.5469" style="stroke:#181818;stroke-width:1.0;"/><line style="stroke:#181818;stroke-width:1.0;" x1="534.5" x2="686.5" y1="697.5469" y2="697.5469"/><text fill="#000000" font-family="sans-serif" font-size="13" lengthAdjust="spacing" textLength="118" x="541.5" y="692.6904">completeBooking(id)</text><polygon fill="#181818" points="1041,723.8984,1051,727.8984,1041,731.8984,1045,727.8984" style="stroke:#181818;stroke-width:1.0;"/><line style="stroke:#181818;stroke-width:1.0;" x1="692.5" x2="1047" y1="727.8984" y2="727.8984"/><text fill="#000000" font-family="sans-serif" font-size="13" lengthAdjust="spacing" textLength="175" x="699.5" y="723.042">applyOverduePenalty(booking)</text><polygon fill="#181818" points="703.5,754.25,693.5,758.25,703.5,762.25,699.5,758.25" style="stroke:#181818;stroke-width:1.0;"/><line style="stroke:#181818;stroke-width:1.0;stroke-dasharray:2.0,2.0;" x1="697.5" x2="1052" y1="758.25" y2="758.25"/><text fill="#000000" font-family="sans-serif" font-size="13" lengthAdjust="spacing" textLength="79" x="709.5" y="753.3936">penaltyPoints</text><polygon fill="#181818" points="1181.5,784.6016,1191.5,788.6016,1181.5,792.6016,1185.5,788.6016" style="stroke:#181818;stroke-width:1.0;"/><line style="stroke:#181818;stroke-width:1.0;" x1="692.5" x2="1187.5" y1="788.6016" y2="788.6016"/><text fill="#000000" font-family="sans-serif" font-size="13" lengthAdjust="spacing" textLength="373" x="699.5" y="783.7451">addCreditHistory(user, reason="&#36229;&#26399;&#24809;&#32602;", delta=-penaltyPoints)</text><polygon fill="#181818" points="932.5,814.9531,942.5,818.9531,932.5,822.9531,936.5,818.9531" style="stroke:#181818;stroke-width:1.0;"/><line style="stroke:#181818;stroke-width:1.0;" x1="692.5" x2="938.5" y1="818.9531" y2="818.9531"/><text fill="#000000" font-family="sans-serif" font-size="13" lengthAdjust="spacing" textLength="175" x="699.5" y="814.0967">update status = COMPLETED</text><polygon fill="#181818" points="545.5,845.3047,535.5,849.3047,545.5,853.3047,541.5,849.3047" style="stroke:#181818;stroke-width:1.0;"/><line style="stroke:#181818;stroke-width:1.0;stroke-dasharray:2.0,2.0;" x1="539.5" x2="691.5" y1="849.3047" y2="849.3047"/><text fill="#000000" font-family="sans-serif" font-size="13" lengthAdjust="spacing" textLength="49" x="551.5" y="844.4482">success</text><polygon fill="#181818" points="326.5,875.6563,316.5,879.6563,326.5,883.6563,322.5,879.6563" style="stroke:#181818;stroke-width:1.0;"/><line style="stroke:#181818;stroke-width:1.0;stroke-dasharray:2.0,2.0;" x1="320.5" x2="533.5" y1="879.6563" y2="879.6563"/><text fill="#000000" font-family="sans-serif" font-size="13" lengthAdjust="spacing" textLength="80" x="332.5" y="874.7998">HTTP 200 OK</text><polygon fill="#181818" points="33.5,906.0078,23.5,910.0078,33.5,914.0078,29.5,910.0078" style="stroke:#181818;stroke-width:1.0;"/><line style="stroke:#181818;stroke-width:1.0;stroke-dasharray:2.0,2.0;" x1="27.5" x2="314.5" y1="910.0078" y2="910.0078"/><text fill="#000000" font-family="sans-serif" font-size="13" lengthAdjust="spacing" textLength="164" x="39.5" y="905.1514">&#26174;&#31034;&#8220;&#39044;&#32422;&#23436;&#25104;&#65292;&#20449;&#29992;&#20540;&#26356;&#26032;&#8221;</text><!--SRC=[bLDTQzH057tFhnZsQOExRF5HYD1D5xgexB8VRxwaoLW6iqdCJ0gB55gjMci_5XHHjwLkAL8jMX-i7scj_wLqakwJVy6Pp6JPq5BmRPXxpfrppxb34B4XYDuFQF_p-U5I5FQ6Eqjn-24wN8ptNWm78GqtQFy4v7MZumKOD21s0z-4eEowzv4p2vhmGG0TTZ65Z5dVwAYAOfZ4zK4RGnyO6BGLp_09Cf5dE0JawFErUFzWE3WSRktSTV8DoD2WNLLp2RQQ1KzwI7STuhks3Vq4eMS1KaKJ-dF8X0cYcKMaWXlGSvDwWvykxJA2b2z2wj0nRDAjkpOokmb87BCetOSM8jC8CmEwl0b6_2IKJoTT5Kq3yQkzQFb7jD4x2tU5tK3Jb3OetcGEW1k03lRfqxUYSlPd42qUWBmlvwXQ1O09UxI5Eh00e6FnWwem8gFhZ5slDLkWP7YeD2FcmindfimWS3GeommJLT4vfyauvdYPlINhN6oqkKPN1ZopJwld1ujdFzVfSfyUXLnoa_CJGrcFUyYnojsgDIPLLKInA9z9mwWu196k8lXboSV67CnB2QfIpX3bzKCafYS1rlH6PR9LcPeNJOIx36bOLYQ5VC3si03OVDXrj9pSxkKUNTdE5O05RM9e4seYHVetCWbxheEXmbrAavbkjUhW-iG4k7O1nWFWC8QAtfp4k-7fmkRuQwSBMucVuYu-UXbjRTFUUZRv-D4l-ko8CUcNLKOJMCwyAjuIisM-PBeTpuO4ZeKgRz9OaQLAoyNkShSyp-xMvg1l1L2kU7ucZK2YqWoyz0iWXs3b_sm___uasjoE7d-CVxyRsLxCT5Ipsn1u5jj86JRGW5wxKxzTOO6FHuK3quGONvfGxTOLaGXx_nwlik_5VYDTE8xwtwBNNxdL_m00]--></g></svg>