<?xml version="1.0" encoding="us-ascii" standalone="no"?><svg xmlns="http://www.w3.org/2000/svg" xmlns:xlink="http://www.w3.org/1999/xlink" contentStyleType="text/css" height="749px" preserveAspectRatio="none" style="width:2356px;height:749px;background:#FFFFFF;" version="1.1" viewBox="0 0 2356 749" width="2356px" zoomAndPan="magnify"><defs/><g><!--cluster controller--><g id="cluster_controller"><rect fill="none" height="100" rx="2.5" ry="2.5" style="stroke:#000000;stroke-width:1.5;" width="305" x="999" y="7"/><text fill="#000000" font-family="sans-serif" font-size="14" font-weight="bold" lengthAdjust="spacing" textLength="69" x="1117" y="23.5332">controller</text></g><!--cluster service--><g id="cluster_service"><rect fill="none" height="100" rx="2.5" ry="2.5" style="stroke:#000000;stroke-width:1.5;" width="305" x="554" y="140"/><text fill="#000000" font-family="sans-serif" font-size="14" font-weight="bold" lengthAdjust="spacing" textLength="53" x="680" y="156.5332">service</text></g><!--cluster domain--><g id="cluster_domain"><rect fill="none" height="470" rx="2.5" ry="2.5" style="stroke:#000000;stroke-width:1.5;" width="1441" x="909" y="273"/><text fill="#000000" font-family="sans-serif" font-size="14" font-weight="bold" lengthAdjust="spacing" textLength="51" x="1604" y="289.5332">domain</text></g><!--cluster entity--><g id="cluster_entity"><rect fill="none" height="402" rx="2.5" ry="2.5" style="stroke:#000000;stroke-width:1.5;" width="599" x="1727" y="317"/><text fill="#000000" font-family="sans-serif" font-size="14" font-weight="bold" lengthAdjust="spacing" textLength="39" x="2007" y="333.5332">entity</text></g><!--cluster policy--><g id="cluster_policy"><rect fill="none" height="323" rx="2.5" ry="2.5" style="stroke:#000000;stroke-width:1.5;" width="336" x="933" y="361"/><text fill="#000000" font-family="sans-serif" font-size="14" font-weight="bold" lengthAdjust="spacing" textLength="41" x="1080.5" y="377.5332">policy</text></g><!--cluster dto--><g id="cluster_dto"><rect fill="none" height="188" rx="2.5" ry="2.5" style="stroke:#000000;stroke-width:1.5;" width="410" x="1293" y="326"/><text fill="#000000" font-family="sans-serif" font-size="14" font-weight="bold" lengthAdjust="spacing" textLength="23" x="1486.5" y="342.5332">dto</text></g><!--cluster repository--><g id="cluster_repository"><rect fill="none" height="100" rx="2.5" ry="2.5" style="stroke:#000000;stroke-width:1.5;" width="878" x="7" y="370"/><text fill="#000000" font-family="sans-serif" font-size="14" font-weight="bold" lengthAdjust="spacing" textLength="72" x="410" y="386.5332">repository</text></g><!--cluster exception--><g id="cluster_exception"><rect fill="none" height="100" rx="2.5" ry="2.5" style="stroke:#000000;stroke-width:1.5;" width="362" x="1977" y="7"/><text fill="#000000" font-family="sans-serif" font-size="14" font-weight="bold" lengthAdjust="spacing" textLength="70" x="2123" y="23.5332">exception</text></g><!--cluster config--><g id="cluster_config"><rect fill="none" height="233" rx="2.5" ry="2.5" style="stroke:#000000;stroke-width:1.5;" width="148" x="1803" y="7"/><text fill="#000000" font-family="sans-serif" font-size="14" font-weight="bold" lengthAdjust="spacing" textLength="44" x="1855" y="23.5332">config</text></g><!--class AuthController--><g id="elem_AuthController"><rect codeLine="8" fill="#FFFFFF" height="48" id="AuthController" rx="2.5" ry="2.5" style="stroke:#7F8C8D;stroke-width:0.5;" width="123" x="1164.5" y="43"/><ellipse cx="1179.5" cy="59" fill="#ADD1B2" rx="11" ry="11" style="stroke:#181818;stroke-width:1.0;"/><path d="M1182.2656,54.875 Q1182.4219,54.6563 1182.6094,54.5469 Q1182.7969,54.4375 1183.0156,54.4375 Q1183.3906,54.4375 1183.625,54.7031 Q1183.8594,54.9531 1183.8594,55.5625 L1183.8594,57.0156 Q1183.8594,57.625 1183.625,57.8906 Q1183.3906,58.1563 1183.0156,58.1563 Q1182.6719,58.1563 1182.4688,57.9531 Q1182.2656,57.7656 1182.1563,57.25 Q1182.1094,56.8906 1181.9219,56.7031 Q1181.5938,56.3281 1180.9844,56.1094 Q1180.375,55.8906 1179.75,55.8906 Q1178.9844,55.8906 1178.3438,56.2188 Q1177.7188,56.5469 1177.2188,57.2969 Q1176.7344,58.0469 1176.7344,59.0781 L1176.7344,60.1719 Q1176.7344,61.4063 1177.625,62.2344 Q1178.5156,63.0469 1180.1094,63.0469 Q1181.0469,63.0469 1181.7031,62.7969 Q1182.0938,62.6406 1182.5156,62.2031 Q1182.7813,61.9375 1182.9219,61.8594 Q1183.0781,61.7813 1183.2813,61.7813 Q1183.6094,61.7813 1183.8594,62.0469 Q1184.125,62.2969 1184.125,62.6406 Q1184.125,62.9844 1183.7813,63.3906 Q1183.2813,63.9688 1182.4844,64.2969 Q1181.4063,64.75 1180.1094,64.75 Q1178.5938,64.75 1177.3906,64.125 Q1176.4063,63.625 1175.7188,62.5625 Q1175.0313,61.4844 1175.0313,60.2031 L1175.0313,59.0469 Q1175.0313,57.7188 1175.6406,56.5781 Q1176.2656,55.4219 1177.3594,54.8125 Q1178.4531,54.1875 1179.6875,54.1875 Q1180.4219,54.1875 1181.0625,54.3594 Q1181.7188,54.5156 1182.2656,54.875 Z " fill="#000000"/><text fill="#000000" font-family="sans-serif" font-size="14" lengthAdjust="spacing" textLength="91" x="1193.5" y="64.7285">AuthController</text><line style="stroke:#7F8C8D;stroke-width:0.5;" x1="1165.5" x2="1286.5" y1="75" y2="75"/><line style="stroke:#7F8C8D;stroke-width:0.5;" x1="1165.5" x2="1286.5" y1="83" y2="83"/></g><!--class ApiController--><g id="elem_ApiController"><rect codeLine="9" fill="#FFFFFF" height="48" id="ApiController" rx="2.5" ry="2.5" style="stroke:#7F8C8D;stroke-width:0.5;" width="114" x="1015" y="43"/><ellipse cx="1030" cy="59" fill="#ADD1B2" rx="11" ry="11" style="stroke:#181818;stroke-width:1.0;"/><path d="M1032.7656,54.875 Q1032.9219,54.6563 1033.1094,54.5469 Q1033.2969,54.4375 1033.5156,54.4375 Q1033.8906,54.4375 1034.125,54.7031 Q1034.3594,54.9531 1034.3594,55.5625 L1034.3594,57.0156 Q1034.3594,57.625 1034.125,57.8906 Q1033.8906,58.1563 1033.5156,58.1563 Q1033.1719,58.1563 1032.9688,57.9531 Q1032.7656,57.7656 1032.6563,57.25 Q1032.6094,56.8906 1032.4219,56.7031 Q1032.0938,56.3281 1031.4844,56.1094 Q1030.875,55.8906 1030.25,55.8906 Q1029.4844,55.8906 1028.8438,56.2188 Q1028.2188,56.5469 1027.7188,57.2969 Q1027.2344,58.0469 1027.2344,59.0781 L1027.2344,60.1719 Q1027.2344,61.4063 1028.125,62.2344 Q1029.0156,63.0469 1030.6094,63.0469 Q1031.5469,63.0469 1032.2031,62.7969 Q1032.5938,62.6406 1033.0156,62.2031 Q1033.2813,61.9375 1033.4219,61.8594 Q1033.5781,61.7813 1033.7813,61.7813 Q1034.1094,61.7813 1034.3594,62.0469 Q1034.625,62.2969 1034.625,62.6406 Q1034.625,62.9844 1034.2813,63.3906 Q1033.7813,63.9688 1032.9844,64.2969 Q1031.9063,64.75 1030.6094,64.75 Q1029.0938,64.75 1027.8906,64.125 Q1026.9063,63.625 1026.2188,62.5625 Q1025.5313,61.4844 1025.5313,60.2031 L1025.5313,59.0469 Q1025.5313,57.7188 1026.1406,56.5781 Q1026.7656,55.4219 1027.8594,54.8125 Q1028.9531,54.1875 1030.1875,54.1875 Q1030.9219,54.1875 1031.5625,54.3594 Q1032.2188,54.5156 1032.7656,54.875 Z " fill="#000000"/><text fill="#000000" font-family="sans-serif" font-size="14" lengthAdjust="spacing" textLength="82" x="1044" y="64.7285">ApiController</text><line style="stroke:#7F8C8D;stroke-width:0.5;" x1="1016" x2="1128" y1="75" y2="75"/><line style="stroke:#7F8C8D;stroke-width:0.5;" x1="1016" x2="1128" y1="83" y2="83"/></g><!--class AuthService--><g id="elem_AuthService"><rect codeLine="13" fill="#FFFFFF" height="48" id="AuthService" rx="2.5" ry="2.5" style="stroke:#7F8C8D;stroke-width:0.5;" width="108" x="570" y="176"/><ellipse cx="585" cy="192" fill="#ADD1B2" rx="11" ry="11" style="stroke:#181818;stroke-width:1.0;"/><path d="M587.7656,187.875 Q587.9219,187.6563 588.1094,187.5469 Q588.2969,187.4375 588.5156,187.4375 Q588.8906,187.4375 589.125,187.7031 Q589.3594,187.9531 589.3594,188.5625 L589.3594,190.0156 Q589.3594,190.625 589.125,190.8906 Q588.8906,191.1563 588.5156,191.1563 Q588.1719,191.1563 587.9688,190.9531 Q587.7656,190.7656 587.6563,190.25 Q587.6094,189.8906 587.4219,189.7031 Q587.0938,189.3281 586.4844,189.1094 Q585.875,188.8906 585.25,188.8906 Q584.4844,188.8906 583.8438,189.2188 Q583.2188,189.5469 582.7188,190.2969 Q582.2344,191.0469 582.2344,192.0781 L582.2344,193.1719 Q582.2344,194.4063 583.125,195.2344 Q584.0156,196.0469 585.6094,196.0469 Q586.5469,196.0469 587.2031,195.7969 Q587.5938,195.6406 588.0156,195.2031 Q588.2813,194.9375 588.4219,194.8594 Q588.5781,194.7813 588.7813,194.7813 Q589.1094,194.7813 589.3594,195.0469 Q589.625,195.2969 589.625,195.6406 Q589.625,195.9844 589.2813,196.3906 Q588.7813,196.9688 587.9844,197.2969 Q586.9063,197.75 585.6094,197.75 Q584.0938,197.75 582.8906,197.125 Q581.9063,196.625 581.2188,195.5625 Q580.5313,194.4844 580.5313,193.2031 L580.5313,192.0469 Q580.5313,190.7188 581.1406,189.5781 Q581.7656,188.4219 582.8594,187.8125 Q583.9531,187.1875 585.1875,187.1875 Q585.9219,187.1875 586.5625,187.3594 Q587.2188,187.5156 587.7656,187.875 Z " fill="#000000"/><text fill="#000000" font-family="sans-serif" font-size="14" lengthAdjust="spacing" textLength="76" x="599" y="197.7285">AuthService</text><line style="stroke:#7F8C8D;stroke-width:0.5;" x1="571" x2="677" y1="208" y2="208"/><line style="stroke:#7F8C8D;stroke-width:0.5;" x1="571" x2="677" y1="216" y2="216"/></g><!--class BookingService--><g id="elem_BookingService"><rect codeLine="14" fill="#FFFFFF" height="48" id="BookingService" rx="2.5" ry="2.5" style="stroke:#7F8C8D;stroke-width:0.5;" width="130" x="713" y="176"/><ellipse cx="728" cy="192" fill="#ADD1B2" rx="11" ry="11" style="stroke:#181818;stroke-width:1.0;"/><path d="M730.7656,187.875 Q730.9219,187.6563 731.1094,187.5469 Q731.2969,187.4375 731.5156,187.4375 Q731.8906,187.4375 732.125,187.7031 Q732.3594,187.9531 732.3594,188.5625 L732.3594,190.0156 Q732.3594,190.625 732.125,190.8906 Q731.8906,191.1563 731.5156,191.1563 Q731.1719,191.1563 730.9688,190.9531 Q730.7656,190.7656 730.6563,190.25 Q730.6094,189.8906 730.4219,189.7031 Q730.0938,189.3281 729.4844,189.1094 Q728.875,188.8906 728.25,188.8906 Q727.4844,188.8906 726.8438,189.2188 Q726.2188,189.5469 725.7188,190.2969 Q725.2344,191.0469 725.2344,192.0781 L725.2344,193.1719 Q725.2344,194.4063 726.125,195.2344 Q727.0156,196.0469 728.6094,196.0469 Q729.5469,196.0469 730.2031,195.7969 Q730.5938,195.6406 731.0156,195.2031 Q731.2813,194.9375 731.4219,194.8594 Q731.5781,194.7813 731.7813,194.7813 Q732.1094,194.7813 732.3594,195.0469 Q732.625,195.2969 732.625,195.6406 Q732.625,195.9844 732.2813,196.3906 Q731.7813,196.9688 730.9844,197.2969 Q729.9063,197.75 728.6094,197.75 Q727.0938,197.75 725.8906,197.125 Q724.9063,196.625 724.2188,195.5625 Q723.5313,194.4844 723.5313,193.2031 L723.5313,192.0469 Q723.5313,190.7188 724.1406,189.5781 Q724.7656,188.4219 725.8594,187.8125 Q726.9531,187.1875 728.1875,187.1875 Q728.9219,187.1875 729.5625,187.3594 Q730.2188,187.5156 730.7656,187.875 Z " fill="#000000"/><text fill="#000000" font-family="sans-serif" font-size="14" lengthAdjust="spacing" textLength="98" x="742" y="197.7285">BookingService</text><line style="stroke:#7F8C8D;stroke-width:0.5;" x1="714" x2="842" y1="208" y2="208"/><line style="stroke:#7F8C8D;stroke-width:0.5;" x1="714" x2="842" y1="216" y2="216"/></g><!--class UserAccount--><g id="elem_UserAccount"><rect codeLine="18" fill="#FFFFFF" height="153.6563" id="UserAccount" rx="2.5" ry="2.5" style="stroke:#7F8C8D;stroke-width:0.5;" width="202" x="1744" y="353"/><ellipse cx="1800.75" cy="369" fill="#ADD1B2" rx="11" ry="11" style="stroke:#181818;stroke-width:1.0;"/><path d="M1803.5156,364.875 Q1803.6719,364.6563 1803.8594,364.5469 Q1804.0469,364.4375 1804.2656,364.4375 Q1804.6406,364.4375 1804.875,364.7031 Q1805.1094,364.9531 1805.1094,365.5625 L1805.1094,367.0156 Q1805.1094,367.625 1804.875,367.8906 Q1804.6406,368.1563 1804.2656,368.1563 Q1803.9219,368.1563 1803.7188,367.9531 Q1803.5156,367.7656 1803.4063,367.25 Q1803.3594,366.8906 1803.1719,366.7031 Q1802.8438,366.3281 1802.2344,366.1094 Q1801.625,365.8906 1801,365.8906 Q1800.2344,365.8906 1799.5938,366.2188 Q1798.9688,366.5469 1798.4688,367.2969 Q1797.9844,368.0469 1797.9844,369.0781 L1797.9844,370.1719 Q1797.9844,371.4063 1798.875,372.2344 Q1799.7656,373.0469 1801.3594,373.0469 Q1802.2969,373.0469 1802.9531,372.7969 Q1803.3438,372.6406 1803.7656,372.2031 Q1804.0313,371.9375 1804.1719,371.8594 Q1804.3281,371.7813 1804.5313,371.7813 Q1804.8594,371.7813 1805.1094,372.0469 Q1805.375,372.2969 1805.375,372.6406 Q1805.375,372.9844 1805.0313,373.3906 Q1804.5313,373.9688 1803.7344,374.2969 Q1802.6563,374.75 1801.3594,374.75 Q1799.8438,374.75 1798.6406,374.125 Q1797.6563,373.625 1796.9688,372.5625 Q1796.2813,371.4844 1796.2813,370.2031 L1796.2813,369.0469 Q1796.2813,367.7188 1796.8906,366.5781 Q1797.5156,365.4219 1798.6094,364.8125 Q1799.7031,364.1875 1800.9375,364.1875 Q1801.6719,364.1875 1802.3125,364.3594 Q1802.9688,364.5156 1803.5156,364.875 Z " fill="#000000"/><text fill="#000000" font-family="sans-serif" font-size="14" lengthAdjust="spacing" textLength="80" x="1821.25" y="374.7285">UserAccount</text><line style="stroke:#7F8C8D;stroke-width:0.5;" x1="1745" x2="1945" y1="385" y2="385"/><ellipse cx="1755" cy="399.3047" fill="none" rx="3" ry="3" style="stroke:#038048;stroke-width:1.0;"/><text fill="#000000" font-family="sans-serif" font-size="14" lengthAdjust="spacing" textLength="51" x="1764" y="403.5332">id: Long</text><ellipse cx="1755" cy="416.9141" fill="none" rx="3" ry="3" style="stroke:#038048;stroke-width:1.0;"/><text fill="#000000" font-family="sans-serif" font-size="14" lengthAdjust="spacing" textLength="125" x="1764" y="421.1426">campusCard: String</text><ellipse cx="1755" cy="434.5234" fill="none" rx="3" ry="3" style="stroke:#038048;stroke-width:1.0;"/><text fill="#000000" font-family="sans-serif" font-size="14" lengthAdjust="spacing" textLength="80" x="1764" y="438.752">name: String</text><ellipse cx="1755" cy="452.1328" fill="none" rx="3" ry="3" style="stroke:#038048;stroke-width:1.0;"/><text fill="#000000" font-family="sans-serif" font-size="14" lengthAdjust="spacing" textLength="105" x="1764" y="456.3613">password: String</text><ellipse cx="1755" cy="469.7422" fill="none" rx="3" ry="3" style="stroke:#038048;stroke-width:1.0;"/><text fill="#000000" font-family="sans-serif" font-size="14" lengthAdjust="spacing" textLength="176" x="1764" y="473.9707">role: String  &#171;USER/ADMIN&#187;</text><ellipse cx="1755" cy="487.3516" fill="none" rx="3" ry="3" style="stroke:#038048;stroke-width:1.0;"/><text fill="#000000" font-family="sans-serif" font-size="14" lengthAdjust="spacing" textLength="124" x="1764" y="491.5801">creditScore: Integer</text><line style="stroke:#7F8C8D;stroke-width:0.5;" x1="1745" x2="1945" y1="498.6563" y2="498.6563"/></g><!--class ResourceEntity--><g id="elem_ResourceEntity"><rect codeLine="26" fill="#FFFFFF" height="153.6563" id="ResourceEntity" rx="2.5" ry="2.5" style="stroke:#7F8C8D;stroke-width:0.5;" width="130" x="2019" y="353"/><ellipse cx="2034.9" cy="369" fill="#ADD1B2" rx="11" ry="11" style="stroke:#181818;stroke-width:1.0;"/><path d="M2037.6656,364.875 Q2037.8219,364.6563 2038.0094,364.5469 Q2038.1969,364.4375 2038.4156,364.4375 Q2038.7906,364.4375 2039.025,364.7031 Q2039.2594,364.9531 2039.2594,365.5625 L2039.2594,367.0156 Q2039.2594,367.625 2039.025,367.8906 Q2038.7906,368.1563 2038.4156,368.1563 Q2038.0719,368.1563 2037.8688,367.9531 Q2037.6656,367.7656 2037.5563,367.25 Q2037.5094,366.8906 2037.3219,366.7031 Q2036.9938,366.3281 2036.3844,366.1094 Q2035.775,365.8906 2035.15,365.8906 Q2034.3844,365.8906 2033.7438,366.2188 Q2033.1188,366.5469 2032.6188,367.2969 Q2032.1344,368.0469 2032.1344,369.0781 L2032.1344,370.1719 Q2032.1344,371.4063 2033.025,372.2344 Q2033.9156,373.0469 2035.5094,373.0469 Q2036.4469,373.0469 2037.1031,372.7969 Q2037.4938,372.6406 2037.9156,372.2031 Q2038.1813,371.9375 2038.3219,371.8594 Q2038.4781,371.7813 2038.6813,371.7813 Q2039.0094,371.7813 2039.2594,372.0469 Q2039.525,372.2969 2039.525,372.6406 Q2039.525,372.9844 2039.1813,373.3906 Q2038.6813,373.9688 2037.8844,374.2969 Q2036.8063,374.75 2035.5094,374.75 Q2033.9938,374.75 2032.7906,374.125 Q2031.8063,373.625 2031.1188,372.5625 Q2030.4313,371.4844 2030.4313,370.2031 L2030.4313,369.0469 Q2030.4313,367.7188 2031.0406,366.5781 Q2031.6656,365.4219 2032.7594,364.8125 Q2033.8531,364.1875 2035.0875,364.1875 Q2035.8219,364.1875 2036.4625,364.3594 Q2037.1188,364.5156 2037.6656,364.875 Z " fill="#000000"/><text fill="#000000" font-family="sans-serif" font-size="14" lengthAdjust="spacing" textLength="96" x="2049.1" y="374.7285">ResourceEntity</text><line style="stroke:#7F8C8D;stroke-width:0.5;" x1="2020" x2="2148" y1="385" y2="385"/><ellipse cx="2030" cy="399.3047" fill="none" rx="3" ry="3" style="stroke:#038048;stroke-width:1.0;"/><text fill="#000000" font-family="sans-serif" font-size="14" lengthAdjust="spacing" textLength="51" x="2039" y="403.5332">id: Long</text><ellipse cx="2030" cy="416.9141" fill="none" rx="3" ry="3" style="stroke:#038048;stroke-width:1.0;"/><text fill="#000000" font-family="sans-serif" font-size="14" lengthAdjust="spacing" textLength="80" x="2039" y="421.1426">name: String</text><ellipse cx="2030" cy="434.5234" fill="none" rx="3" ry="3" style="stroke:#038048;stroke-width:1.0;"/><text fill="#000000" font-family="sans-serif" font-size="14" lengthAdjust="spacing" textLength="72" x="2039" y="438.752">type: String</text><ellipse cx="2030" cy="452.1328" fill="none" rx="3" ry="3" style="stroke:#038048;stroke-width:1.0;"/><text fill="#000000" font-family="sans-serif" font-size="14" lengthAdjust="spacing" textLength="94" x="2039" y="456.3613">location: String</text><ellipse cx="2030" cy="469.7422" fill="none" rx="3" ry="3" style="stroke:#038048;stroke-width:1.0;"/><text fill="#000000" font-family="sans-serif" font-size="14" lengthAdjust="spacing" textLength="104" x="2039" y="473.9707">capacity: Integer</text><ellipse cx="2030" cy="487.3516" fill="none" rx="3" ry="3" style="stroke:#038048;stroke-width:1.0;"/><text fill="#000000" font-family="sans-serif" font-size="14" lengthAdjust="spacing" textLength="83" x="2039" y="491.5801">status: String</text><line style="stroke:#7F8C8D;stroke-width:0.5;" x1="2020" x2="2148" y1="498.6563" y2="498.6563"/></g><!--class Booking--><g id="elem_Booking"><rect codeLine="34" fill="#FFFFFF" height="118.4375" id="Booking" rx="2.5" ry="2.5" style="stroke:#7F8C8D;stroke-width:0.5;" width="375" x="1934.5" y="585"/><ellipse cx="2092.25" cy="601" fill="#ADD1B2" rx="11" ry="11" style="stroke:#181818;stroke-width:1.0;"/><path d="M2095.0156,596.875 Q2095.1719,596.6563 2095.3594,596.5469 Q2095.5469,596.4375 2095.7656,596.4375 Q2096.1406,596.4375 2096.375,596.7031 Q2096.6094,596.9531 2096.6094,597.5625 L2096.6094,599.0156 Q2096.6094,599.625 2096.375,599.8906 Q2096.1406,600.1563 2095.7656,600.1563 Q2095.4219,600.1563 2095.2188,599.9531 Q2095.0156,599.7656 2094.9063,599.25 Q2094.8594,598.8906 2094.6719,598.7031 Q2094.3438,598.3281 2093.7344,598.1094 Q2093.125,597.8906 2092.5,597.8906 Q2091.7344,597.8906 2091.0938,598.2188 Q2090.4688,598.5469 2089.9688,599.2969 Q2089.4844,600.0469 2089.4844,601.0781 L2089.4844,602.1719 Q2089.4844,603.4063 2090.375,604.2344 Q2091.2656,605.0469 2092.8594,605.0469 Q2093.7969,605.0469 2094.4531,604.7969 Q2094.8438,604.6406 2095.2656,604.2031 Q2095.5313,603.9375 2095.6719,603.8594 Q2095.8281,603.7813 2096.0313,603.7813 Q2096.3594,603.7813 2096.6094,604.0469 Q2096.875,604.2969 2096.875,604.6406 Q2096.875,604.9844 2096.5313,605.3906 Q2096.0313,605.9688 2095.2344,606.2969 Q2094.1563,606.75 2092.8594,606.75 Q2091.3438,606.75 2090.1406,606.125 Q2089.1563,605.625 2088.4688,604.5625 Q2087.7813,603.4844 2087.7813,602.2031 L2087.7813,601.0469 Q2087.7813,599.7188 2088.3906,598.5781 Q2089.0156,597.4219 2090.1094,596.8125 Q2091.2031,596.1875 2092.4375,596.1875 Q2093.1719,596.1875 2093.8125,596.3594 Q2094.4688,596.5156 2095.0156,596.875 Z " fill="#000000"/><text fill="#000000" font-family="sans-serif" font-size="14" lengthAdjust="spacing" textLength="51" x="2112.75" y="606.7285">Booking</text><line style="stroke:#7F8C8D;stroke-width:0.5;" x1="1935.5" x2="2308.5" y1="617" y2="617"/><ellipse cx="1945.5" cy="631.3047" fill="none" rx="3" ry="3" style="stroke:#038048;stroke-width:1.0;"/><text fill="#000000" font-family="sans-serif" font-size="14" lengthAdjust="spacing" textLength="51" x="1954.5" y="635.5332">id: Long</text><ellipse cx="1945.5" cy="648.9141" fill="none" rx="3" ry="3" style="stroke:#038048;stroke-width:1.0;"/><text fill="#000000" font-family="sans-serif" font-size="14" lengthAdjust="spacing" textLength="128" x="1954.5" y="653.1426">startTime: DateTime</text><ellipse cx="1945.5" cy="666.5234" fill="none" rx="3" ry="3" style="stroke:#038048;stroke-width:1.0;"/><text fill="#000000" font-family="sans-serif" font-size="14" lengthAdjust="spacing" textLength="124" x="1954.5" y="670.752">endTime: DateTime</text><ellipse cx="1945.5" cy="684.1328" fill="none" rx="3" ry="3" style="stroke:#038048;stroke-width:1.0;"/><text fill="#000000" font-family="sans-serif" font-size="14" lengthAdjust="spacing" textLength="349" x="1954.5" y="688.3613">status: String  &#171;CREATED/CANCELLED/COMPLETED&#187;</text><line style="stroke:#7F8C8D;stroke-width:0.5;" x1="1935.5" x2="2308.5" y1="695.4375" y2="695.4375"/></g><!--class CreditHistory--><g id="elem_CreditHistory"><rect codeLine="40" fill="#FFFFFF" height="118.4375" id="CreditHistory" rx="2.5" ry="2.5" style="stroke:#7F8C8D;stroke-width:0.5;" width="156" x="1743" y="585"/><ellipse cx="1777.35" cy="601" fill="#ADD1B2" rx="11" ry="11" style="stroke:#181818;stroke-width:1.0;"/><path d="M1780.1156,596.875 Q1780.2719,596.6563 1780.4594,596.5469 Q1780.6469,596.4375 1780.8656,596.4375 Q1781.2406,596.4375 1781.475,596.7031 Q1781.7094,596.9531 1781.7094,597.5625 L1781.7094,599.0156 Q1781.7094,599.625 1781.475,599.8906 Q1781.2406,600.1563 1780.8656,600.1563 Q1780.5219,600.1563 1780.3188,599.9531 Q1780.1156,599.7656 1780.0063,599.25 Q1779.9594,598.8906 1779.7719,598.7031 Q1779.4438,598.3281 1778.8344,598.1094 Q1778.225,597.8906 1777.6,597.8906 Q1776.8344,597.8906 1776.1938,598.2188 Q1775.5688,598.5469 1775.0688,599.2969 Q1774.5844,600.0469 1774.5844,601.0781 L1774.5844,602.1719 Q1774.5844,603.4063 1775.475,604.2344 Q1776.3656,605.0469 1777.9594,605.0469 Q1778.8969,605.0469 1779.5531,604.7969 Q1779.9438,604.6406 1780.3656,604.2031 Q1780.6313,603.9375 1780.7719,603.8594 Q1780.9281,603.7813 1781.1313,603.7813 Q1781.4594,603.7813 1781.7094,604.0469 Q1781.975,604.2969 1781.975,604.6406 Q1781.975,604.9844 1781.6313,605.3906 Q1781.1313,605.9688 1780.3344,606.2969 Q1779.2563,606.75 1777.9594,606.75 Q1776.4438,606.75 1775.2406,606.125 Q1774.2563,605.625 1773.5688,604.5625 Q1772.8813,603.4844 1772.8813,602.2031 L1772.8813,601.0469 Q1772.8813,599.7188 1773.4906,598.5781 Q1774.1156,597.4219 1775.2094,596.8125 Q1776.3031,596.1875 1777.5375,596.1875 Q1778.2719,596.1875 1778.9125,596.3594 Q1779.5688,596.5156 1780.1156,596.875 Z " fill="#000000"/><text fill="#000000" font-family="sans-serif" font-size="14" lengthAdjust="spacing" textLength="81" x="1795.65" y="606.7285">CreditHistory</text><line style="stroke:#7F8C8D;stroke-width:0.5;" x1="1744" x2="1898" y1="617" y2="617"/><ellipse cx="1754" cy="631.3047" fill="none" rx="3" ry="3" style="stroke:#038048;stroke-width:1.0;"/><text fill="#000000" font-family="sans-serif" font-size="14" lengthAdjust="spacing" textLength="51" x="1763" y="635.5332">id: Long</text><ellipse cx="1754" cy="648.9141" fill="none" rx="3" ry="3" style="stroke:#038048;stroke-width:1.0;"/><text fill="#000000" font-family="sans-serif" font-size="14" lengthAdjust="spacing" textLength="83" x="1763" y="653.1426">delta: Integer</text><ellipse cx="1754" cy="666.5234" fill="none" rx="3" ry="3" style="stroke:#038048;stroke-width:1.0;"/><text fill="#000000" font-family="sans-serif" font-size="14" lengthAdjust="spacing" textLength="89" x="1763" y="670.752">reason: String</text><ellipse cx="1754" cy="684.1328" fill="none" rx="3" ry="3" style="stroke:#038048;stroke-width:1.0;"/><text fill="#000000" font-family="sans-serif" font-size="14" lengthAdjust="spacing" textLength="130" x="1763" y="688.3613">createdAt: DateTime</text><line style="stroke:#7F8C8D;stroke-width:0.5;" x1="1744" x2="1898" y1="695.4375" y2="695.4375"/></g><!--class PenaltyPolicy--><g id="elem_PenaltyPolicy"><rect codeLine="49" fill="#FFFFFF" height="65.6094" id="PenaltyPolicy" rx="2.5" ry="2.5" style="stroke:#7F8C8D;stroke-width:0.5;" width="304" x="949" y="397"/><ellipse cx="1054.75" cy="413" fill="#B4A7E5" rx="11" ry="11" style="stroke:#181818;stroke-width:1.0;"/><path d="M1055.7031,409.6406 L1055.7031,416.2969 L1057.4219,416.2969 Q1058.0313,416.2969 1058.2969,416.5313 Q1058.5625,416.7656 1058.5625,417.1563 Q1058.5625,417.5313 1058.2969,417.7656 Q1058.0313,418 1057.4219,418 L1052.2813,418 Q1051.6719,418 1051.4063,417.7656 Q1051.1406,417.5313 1051.1406,417.1406 Q1051.1406,416.7656 1051.4063,416.5313 Q1051.6719,416.2969 1052.2813,416.2969 L1054,416.2969 L1054,409.6406 L1052.2813,409.6406 Q1051.6719,409.6406 1051.4063,409.4063 Q1051.1406,409.1719 1051.1406,408.7813 Q1051.1406,408.4063 1051.4063,408.1719 Q1051.6719,407.9375 1052.2813,407.9375 L1057.4219,407.9375 Q1058.0313,407.9375 1058.2969,408.1719 Q1058.5625,408.4063 1058.5625,408.7813 Q1058.5625,409.1719 1058.2969,409.4063 Q1058.0313,409.6406 1057.4219,409.6406 L1055.7031,409.6406 Z " fill="#000000"/><text fill="#000000" font-family="sans-serif" font-size="14" font-style="italic" lengthAdjust="spacing" textLength="84" x="1075.25" y="418.7285">PenaltyPolicy</text><line style="stroke:#7F8C8D;stroke-width:0.5;" x1="950" x2="1252" y1="429" y2="429"/><line style="stroke:#7F8C8D;stroke-width:0.5;" x1="950" x2="1252" y1="437" y2="437"/><ellipse cx="960" cy="451.3047" fill="#84BE84" rx="3" ry="3" style="stroke:#038048;stroke-width:1.0;"/><text fill="#000000" font-family="sans-serif" font-size="14" lengthAdjust="spacing" textLength="278" x="969" y="455.5332">applyOverduePenalty(booking: Booking): int</text></g><!--class SimplePenaltyPolicy--><g id="elem_SimplePenaltyPolicy"><rect codeLine="52" fill="#FFFFFF" height="48" id="SimplePenaltyPolicy" rx="2.5" ry="2.5" style="stroke:#7F8C8D;stroke-width:0.5;" width="158" x="1022" y="620"/><ellipse cx="1037" cy="636" fill="#ADD1B2" rx="11" ry="11" style="stroke:#181818;stroke-width:1.0;"/><path d="M1039.7656,631.875 Q1039.9219,631.6563 1040.1094,631.5469 Q1040.2969,631.4375 1040.5156,631.4375 Q1040.8906,631.4375 1041.125,631.7031 Q1041.3594,631.9531 1041.3594,632.5625 L1041.3594,634.0156 Q1041.3594,634.625 1041.125,634.8906 Q1040.8906,635.1563 1040.5156,635.1563 Q1040.1719,635.1563 1039.9688,634.9531 Q1039.7656,634.7656 1039.6563,634.25 Q1039.6094,633.8906 1039.4219,633.7031 Q1039.0938,633.3281 1038.4844,633.1094 Q1037.875,632.8906 1037.25,632.8906 Q1036.4844,632.8906 1035.8438,633.2188 Q1035.2188,633.5469 1034.7188,634.2969 Q1034.2344,635.0469 1034.2344,636.0781 L1034.2344,637.1719 Q1034.2344,638.4063 1035.125,639.2344 Q1036.0156,640.0469 1037.6094,640.0469 Q1038.5469,640.0469 1039.2031,639.7969 Q1039.5938,639.6406 1040.0156,639.2031 Q1040.2813,638.9375 1040.4219,638.8594 Q1040.5781,638.7813 1040.7813,638.7813 Q1041.1094,638.7813 1041.3594,639.0469 Q1041.625,639.2969 1041.625,639.6406 Q1041.625,639.9844 1041.2813,640.3906 Q1040.7813,640.9688 1039.9844,641.2969 Q1038.9063,641.75 1037.6094,641.75 Q1036.0938,641.75 1034.8906,641.125 Q1033.9063,640.625 1033.2188,639.5625 Q1032.5313,638.4844 1032.5313,637.2031 L1032.5313,636.0469 Q1032.5313,634.7188 1033.1406,633.5781 Q1033.7656,632.4219 1034.8594,631.8125 Q1035.9531,631.1875 1037.1875,631.1875 Q1037.9219,631.1875 1038.5625,631.3594 Q1039.2188,631.5156 1039.7656,631.875 Z " fill="#000000"/><text fill="#000000" font-family="sans-serif" font-size="14" lengthAdjust="spacing" textLength="126" x="1051" y="641.7285">SimplePenaltyPolicy</text><line style="stroke:#7F8C8D;stroke-width:0.5;" x1="1023" x2="1179" y1="652" y2="652"/><line style="stroke:#7F8C8D;stroke-width:0.5;" x1="1023" x2="1179" y1="660" y2="660"/></g><!--class CreateBookingRequest--><g id="elem_CreateBookingRequest"><rect codeLine="56" fill="#FFFFFF" height="100.8281" id="CreateBookingRequest" rx="2.5" ry="2.5" style="stroke:#7F8C8D;stroke-width:0.5;" width="179" x="1507.5" y="379.5"/><ellipse cx="1522.5" cy="395.5" fill="#ADD1B2" rx="11" ry="11" style="stroke:#181818;stroke-width:1.0;"/><path d="M1525.2656,391.375 Q1525.4219,391.1563 1525.6094,391.0469 Q1525.7969,390.9375 1526.0156,390.9375 Q1526.3906,390.9375 1526.625,391.2031 Q1526.8594,391.4531 1526.8594,392.0625 L1526.8594,393.5156 Q1526.8594,394.125 1526.625,394.3906 Q1526.3906,394.6563 1526.0156,394.6563 Q1525.6719,394.6563 1525.4688,394.4531 Q1525.2656,394.2656 1525.1563,393.75 Q1525.1094,393.3906 1524.9219,393.2031 Q1524.5938,392.8281 1523.9844,392.6094 Q1523.375,392.3906 1522.75,392.3906 Q1521.9844,392.3906 1521.3438,392.7188 Q1520.7188,393.0469 1520.2188,393.7969 Q1519.7344,394.5469 1519.7344,395.5781 L1519.7344,396.6719 Q1519.7344,397.9063 1520.625,398.7344 Q1521.5156,399.5469 1523.1094,399.5469 Q1524.0469,399.5469 1524.7031,399.2969 Q1525.0938,399.1406 1525.5156,398.7031 Q1525.7813,398.4375 1525.9219,398.3594 Q1526.0781,398.2813 1526.2813,398.2813 Q1526.6094,398.2813 1526.8594,398.5469 Q1527.125,398.7969 1527.125,399.1406 Q1527.125,399.4844 1526.7813,399.8906 Q1526.2813,400.4688 1525.4844,400.7969 Q1524.4063,401.25 1523.1094,401.25 Q1521.5938,401.25 1520.3906,400.625 Q1519.4063,400.125 1518.7188,399.0625 Q1518.0313,397.9844 1518.0313,396.7031 L1518.0313,395.5469 Q1518.0313,394.2188 1518.6406,393.0781 Q1519.2656,391.9219 1520.3594,391.3125 Q1521.4531,390.6875 1522.6875,390.6875 Q1523.4219,390.6875 1524.0625,390.8594 Q1524.7188,391.0156 1525.2656,391.375 Z " fill="#000000"/><text fill="#000000" font-family="sans-serif" font-size="14" lengthAdjust="spacing" textLength="147" x="1536.5" y="401.2285">CreateBookingRequest</text><line style="stroke:#7F8C8D;stroke-width:0.5;" x1="1508.5" x2="1685.5" y1="411.5" y2="411.5"/><ellipse cx="1518.5" cy="425.8047" fill="none" rx="3" ry="3" style="stroke:#038048;stroke-width:1.0;"/><text fill="#000000" font-family="sans-serif" font-size="14" lengthAdjust="spacing" textLength="107" x="1527.5" y="430.0332">resourceId: Long</text><ellipse cx="1518.5" cy="443.4141" fill="none" rx="3" ry="3" style="stroke:#038048;stroke-width:1.0;"/><text fill="#000000" font-family="sans-serif" font-size="14" lengthAdjust="spacing" textLength="128" x="1527.5" y="447.6426">startTime: DateTime</text><ellipse cx="1518.5" cy="461.0234" fill="none" rx="3" ry="3" style="stroke:#038048;stroke-width:1.0;"/><text fill="#000000" font-family="sans-serif" font-size="14" lengthAdjust="spacing" textLength="124" x="1527.5" y="465.252">endTime: DateTime</text><line style="stroke:#7F8C8D;stroke-width:0.5;" x1="1508.5" x2="1685.5" y1="472.3281" y2="472.3281"/></g><!--class BookingResponse--><g id="elem_BookingResponse"><rect codeLine="61" fill="#FFFFFF" height="136.0469" id="BookingResponse" rx="2.5" ry="2.5" style="stroke:#7F8C8D;stroke-width:0.5;" width="163" x="1309.5" y="362"/><ellipse cx="1331.7" cy="378" fill="#ADD1B2" rx="11" ry="11" style="stroke:#181818;stroke-width:1.0;"/><path d="M1334.4656,373.875 Q1334.6219,373.6563 1334.8094,373.5469 Q1334.9969,373.4375 1335.2156,373.4375 Q1335.5906,373.4375 1335.825,373.7031 Q1336.0594,373.9531 1336.0594,374.5625 L1336.0594,376.0156 Q1336.0594,376.625 1335.825,376.8906 Q1335.5906,377.1563 1335.2156,377.1563 Q1334.8719,377.1563 1334.6688,376.9531 Q1334.4656,376.7656 1334.3563,376.25 Q1334.3094,375.8906 1334.1219,375.7031 Q1333.7938,375.3281 1333.1844,375.1094 Q1332.575,374.8906 1331.95,374.8906 Q1331.1844,374.8906 1330.5438,375.2188 Q1329.9188,375.5469 1329.4188,376.2969 Q1328.9344,377.0469 1328.9344,378.0781 L1328.9344,379.1719 Q1328.9344,380.4063 1329.825,381.2344 Q1330.7156,382.0469 1332.3094,382.0469 Q1333.2469,382.0469 1333.9031,381.7969 Q1334.2938,381.6406 1334.7156,381.2031 Q1334.9813,380.9375 1335.1219,380.8594 Q1335.2781,380.7813 1335.4813,380.7813 Q1335.8094,380.7813 1336.0594,381.0469 Q1336.325,381.2969 1336.325,381.6406 Q1336.325,381.9844 1335.9813,382.3906 Q1335.4813,382.9688 1334.6844,383.2969 Q1333.6063,383.75 1332.3094,383.75 Q1330.7938,383.75 1329.5906,383.125 Q1328.6063,382.625 1327.9188,381.5625 Q1327.2313,380.4844 1327.2313,379.2031 L1327.2313,378.0469 Q1327.2313,376.7188 1327.8406,375.5781 Q1328.4656,374.4219 1329.5594,373.8125 Q1330.6531,373.1875 1331.8875,373.1875 Q1332.6219,373.1875 1333.2625,373.3594 Q1333.9188,373.5156 1334.4656,373.875 Z " fill="#000000"/><text fill="#000000" font-family="sans-serif" font-size="14" lengthAdjust="spacing" textLength="115" x="1347.3" y="383.7285">BookingResponse</text><line style="stroke:#7F8C8D;stroke-width:0.5;" x1="1310.5" x2="1471.5" y1="394" y2="394"/><ellipse cx="1320.5" cy="408.3047" fill="none" rx="3" ry="3" style="stroke:#038048;stroke-width:1.0;"/><text fill="#000000" font-family="sans-serif" font-size="14" lengthAdjust="spacing" textLength="51" x="1329.5" y="412.5332">id: Long</text><ellipse cx="1320.5" cy="425.9141" fill="none" rx="3" ry="3" style="stroke:#038048;stroke-width:1.0;"/><text fill="#000000" font-family="sans-serif" font-size="14" lengthAdjust="spacing" textLength="137" x="1329.5" y="430.1426">resourceName: String</text><ellipse cx="1320.5" cy="443.5234" fill="none" rx="3" ry="3" style="stroke:#038048;stroke-width:1.0;"/><text fill="#000000" font-family="sans-serif" font-size="14" lengthAdjust="spacing" textLength="128" x="1329.5" y="447.752">startTime: DateTime</text><ellipse cx="1320.5" cy="461.1328" fill="none" rx="3" ry="3" style="stroke:#038048;stroke-width:1.0;"/><text fill="#000000" font-family="sans-serif" font-size="14" lengthAdjust="spacing" textLength="124" x="1329.5" y="465.3613">endTime: DateTime</text><ellipse cx="1320.5" cy="478.7422" fill="none" rx="3" ry="3" style="stroke:#038048;stroke-width:1.0;"/><text fill="#000000" font-family="sans-serif" font-size="14" lengthAdjust="spacing" textLength="83" x="1329.5" y="482.9707">status: String</text><line style="stroke:#7F8C8D;stroke-width:0.5;" x1="1310.5" x2="1471.5" y1="490.0469" y2="490.0469"/></g><!--class UserRepo--><g id="elem_UserRepo"><rect codeLine="71" fill="#FFFFFF" height="48" id="UserRepo" rx="2.5" ry="2.5" style="stroke:#7F8C8D;stroke-width:0.5;" width="96" x="23" y="406"/><ellipse cx="38" cy="422" fill="#B4A7E5" rx="11" ry="11" style="stroke:#181818;stroke-width:1.0;"/><path d="M38.9531,418.6406 L38.9531,425.2969 L40.6719,425.2969 Q41.2813,425.2969 41.5469,425.5313 Q41.8125,425.7656 41.8125,426.1563 Q41.8125,426.5313 41.5469,426.7656 Q41.2813,427 40.6719,427 L35.5313,427 Q34.9219,427 34.6563,426.7656 Q34.3906,426.5313 34.3906,426.1406 Q34.3906,425.7656 34.6563,425.5313 Q34.9219,425.2969 35.5313,425.2969 L37.25,425.2969 L37.25,418.6406 L35.5313,418.6406 Q34.9219,418.6406 34.6563,418.4063 Q34.3906,418.1719 34.3906,417.7813 Q34.3906,417.4063 34.6563,417.1719 Q34.9219,416.9375 35.5313,416.9375 L40.6719,416.9375 Q41.2813,416.9375 41.5469,417.1719 Q41.8125,417.4063 41.8125,417.7813 Q41.8125,418.1719 41.5469,418.4063 Q41.2813,418.6406 40.6719,418.6406 L38.9531,418.6406 Z " fill="#000000"/><text fill="#000000" font-family="sans-serif" font-size="14" font-style="italic" lengthAdjust="spacing" textLength="64" x="52" y="427.7285">UserRepo</text><line style="stroke:#7F8C8D;stroke-width:0.5;" x1="24" x2="118" y1="438" y2="438"/><line style="stroke:#7F8C8D;stroke-width:0.5;" x1="24" x2="118" y1="446" y2="446"/></g><!--class UserAccountRepository--><g id="elem_UserAccountRepository"><rect codeLine="72" fill="#FFFFFF" height="48" id="UserAccountRepository" rx="2.5" ry="2.5" style="stroke:#7F8C8D;stroke-width:0.5;" width="181" x="470.5" y="406"/><ellipse cx="485.5" cy="422" fill="#B4A7E5" rx="11" ry="11" style="stroke:#181818;stroke-width:1.0;"/><path d="M486.4531,418.6406 L486.4531,425.2969 L488.1719,425.2969 Q488.7813,425.2969 489.0469,425.5313 Q489.3125,425.7656 489.3125,426.1563 Q489.3125,426.5313 489.0469,426.7656 Q488.7813,427 488.1719,427 L483.0313,427 Q482.4219,427 482.1563,426.7656 Q481.8906,426.5313 481.8906,426.1406 Q481.8906,425.7656 482.1563,425.5313 Q482.4219,425.2969 483.0313,425.2969 L484.75,425.2969 L484.75,418.6406 L483.0313,418.6406 Q482.4219,418.6406 482.1563,418.4063 Q481.8906,418.1719 481.8906,417.7813 Q481.8906,417.4063 482.1563,417.1719 Q482.4219,416.9375 483.0313,416.9375 L488.1719,416.9375 Q488.7813,416.9375 489.0469,417.1719 Q489.3125,417.4063 489.3125,417.7813 Q489.3125,418.1719 489.0469,418.4063 Q488.7813,418.6406 488.1719,418.6406 L486.4531,418.6406 Z " fill="#000000"/><text fill="#000000" font-family="sans-serif" font-size="14" font-style="italic" lengthAdjust="spacing" textLength="149" x="499.5" y="427.7285">UserAccountRepository</text><line style="stroke:#7F8C8D;stroke-width:0.5;" x1="471.5" x2="650.5" y1="438" y2="438"/><line style="stroke:#7F8C8D;stroke-width:0.5;" x1="471.5" x2="650.5" y1="446" y2="446"/></g><!--class ResourceRepo--><g id="elem_ResourceRepo"><rect codeLine="73" fill="#FFFFFF" height="48" id="ResourceRepo" rx="2.5" ry="2.5" style="stroke:#7F8C8D;stroke-width:0.5;" width="127" x="154.5" y="406"/><ellipse cx="169.5" cy="422" fill="#B4A7E5" rx="11" ry="11" style="stroke:#181818;stroke-width:1.0;"/><path d="M170.4531,418.6406 L170.4531,425.2969 L172.1719,425.2969 Q172.7813,425.2969 173.0469,425.5313 Q173.3125,425.7656 173.3125,426.1563 Q173.3125,426.5313 173.0469,426.7656 Q172.7813,427 172.1719,427 L167.0313,427 Q166.4219,427 166.1563,426.7656 Q165.8906,426.5313 165.8906,426.1406 Q165.8906,425.7656 166.1563,425.5313 Q166.4219,425.2969 167.0313,425.2969 L168.75,425.2969 L168.75,418.6406 L167.0313,418.6406 Q166.4219,418.6406 166.1563,418.4063 Q165.8906,418.1719 165.8906,417.7813 Q165.8906,417.4063 166.1563,417.1719 Q166.4219,416.9375 167.0313,416.9375 L172.1719,416.9375 Q172.7813,416.9375 173.0469,417.1719 Q173.3125,417.4063 173.3125,417.7813 Q173.3125,418.1719 173.0469,418.4063 Q172.7813,418.6406 172.1719,418.6406 L170.4531,418.6406 Z " fill="#000000"/><text fill="#000000" font-family="sans-serif" font-size="14" font-style="italic" lengthAdjust="spacing" textLength="95" x="183.5" y="427.7285">ResourceRepo</text><line style="stroke:#7F8C8D;stroke-width:0.5;" x1="155.5" x2="280.5" y1="438" y2="438"/><line style="stroke:#7F8C8D;stroke-width:0.5;" x1="155.5" x2="280.5" y1="446" y2="446"/></g><!--class BookingRepo--><g id="elem_BookingRepo"><rect codeLine="74" fill="#FFFFFF" height="48" id="BookingRepo" rx="2.5" ry="2.5" style="stroke:#7F8C8D;stroke-width:0.5;" width="118" x="317" y="406"/><ellipse cx="332" cy="422" fill="#B4A7E5" rx="11" ry="11" style="stroke:#181818;stroke-width:1.0;"/><path d="M332.9531,418.6406 L332.9531,425.2969 L334.6719,425.2969 Q335.2813,425.2969 335.5469,425.5313 Q335.8125,425.7656 335.8125,426.1563 Q335.8125,426.5313 335.5469,426.7656 Q335.2813,427 334.6719,427 L329.5313,427 Q328.9219,427 328.6563,426.7656 Q328.3906,426.5313 328.3906,426.1406 Q328.3906,425.7656 328.6563,425.5313 Q328.9219,425.2969 329.5313,425.2969 L331.25,425.2969 L331.25,418.6406 L329.5313,418.6406 Q328.9219,418.6406 328.6563,418.4063 Q328.3906,418.1719 328.3906,417.7813 Q328.3906,417.4063 328.6563,417.1719 Q328.9219,416.9375 329.5313,416.9375 L334.6719,416.9375 Q335.2813,416.9375 335.5469,417.1719 Q335.8125,417.4063 335.8125,417.7813 Q335.8125,418.1719 335.5469,418.4063 Q335.2813,418.6406 334.6719,418.6406 L332.9531,418.6406 Z " fill="#000000"/><text fill="#000000" font-family="sans-serif" font-size="14" font-style="italic" lengthAdjust="spacing" textLength="86" x="346" y="427.7285">BookingRepo</text><line style="stroke:#7F8C8D;stroke-width:0.5;" x1="318" x2="434" y1="438" y2="438"/><line style="stroke:#7F8C8D;stroke-width:0.5;" x1="318" x2="434" y1="446" y2="446"/></g><!--class CreditHistoryRepository--><g id="elem_CreditHistoryRepository"><rect codeLine="75" fill="#FFFFFF" height="48" id="CreditHistoryRepository" rx="2.5" ry="2.5" style="stroke:#7F8C8D;stroke-width:0.5;" width="182" x="687" y="406"/><ellipse cx="702" cy="422" fill="#B4A7E5" rx="11" ry="11" style="stroke:#181818;stroke-width:1.0;"/><path d="M702.9531,418.6406 L702.9531,425.2969 L704.6719,425.2969 Q705.2813,425.2969 705.5469,425.5313 Q705.8125,425.7656 705.8125,426.1563 Q705.8125,426.5313 705.5469,426.7656 Q705.2813,427 704.6719,427 L699.5313,427 Q698.9219,427 698.6563,426.7656 Q698.3906,426.5313 698.3906,426.1406 Q698.3906,425.7656 698.6563,425.5313 Q698.9219,425.2969 699.5313,425.2969 L701.25,425.2969 L701.25,418.6406 L699.5313,418.6406 Q698.9219,418.6406 698.6563,418.4063 Q698.3906,418.1719 698.3906,417.7813 Q698.3906,417.4063 698.6563,417.1719 Q698.9219,416.9375 699.5313,416.9375 L704.6719,416.9375 Q705.2813,416.9375 705.5469,417.1719 Q705.8125,417.4063 705.8125,417.7813 Q705.8125,418.1719 705.5469,418.4063 Q705.2813,418.6406 704.6719,418.6406 L702.9531,418.6406 Z " fill="#000000"/><text fill="#000000" font-family="sans-serif" font-size="14" font-style="italic" lengthAdjust="spacing" textLength="150" x="716" y="427.7285">CreditHistoryRepository</text><line style="stroke:#7F8C8D;stroke-width:0.5;" x1="688" x2="868" y1="438" y2="438"/><line style="stroke:#7F8C8D;stroke-width:0.5;" x1="688" x2="868" y1="446" y2="446"/></g><!--class BizException--><g id="elem_BizException"><rect codeLine="79" fill="#FFFFFF" height="48" id="BizException" rx="2.5" ry="2.5" style="stroke:#7F8C8D;stroke-width:0.5;" width="111" x="2211.5" y="43"/><ellipse cx="2226.5" cy="59" fill="#ADD1B2" rx="11" ry="11" style="stroke:#181818;stroke-width:1.0;"/><path d="M2229.2656,54.875 Q2229.4219,54.6563 2229.6094,54.5469 Q2229.7969,54.4375 2230.0156,54.4375 Q2230.3906,54.4375 2230.625,54.7031 Q2230.8594,54.9531 2230.8594,55.5625 L2230.8594,57.0156 Q2230.8594,57.625 2230.625,57.8906 Q2230.3906,58.1563 2230.0156,58.1563 Q2229.6719,58.1563 2229.4688,57.9531 Q2229.2656,57.7656 2229.1563,57.25 Q2229.1094,56.8906 2228.9219,56.7031 Q2228.5938,56.3281 2227.9844,56.1094 Q2227.375,55.8906 2226.75,55.8906 Q2225.9844,55.8906 2225.3438,56.2188 Q2224.7188,56.5469 2224.2188,57.2969 Q2223.7344,58.0469 2223.7344,59.0781 L2223.7344,60.1719 Q2223.7344,61.4063 2224.625,62.2344 Q2225.5156,63.0469 2227.1094,63.0469 Q2228.0469,63.0469 2228.7031,62.7969 Q2229.0938,62.6406 2229.5156,62.2031 Q2229.7813,61.9375 2229.9219,61.8594 Q2230.0781,61.7813 2230.2813,61.7813 Q2230.6094,61.7813 2230.8594,62.0469 Q2231.125,62.2969 2231.125,62.6406 Q2231.125,62.9844 2230.7813,63.3906 Q2230.2813,63.9688 2229.4844,64.2969 Q2228.4063,64.75 2227.1094,64.75 Q2225.5938,64.75 2224.3906,64.125 Q2223.4063,63.625 2222.7188,62.5625 Q2222.0313,61.4844 2222.0313,60.2031 L2222.0313,59.0469 Q2222.0313,57.7188 2222.6406,56.5781 Q2223.2656,55.4219 2224.3594,54.8125 Q2225.4531,54.1875 2226.6875,54.1875 Q2227.4219,54.1875 2228.0625,54.3594 Q2228.7188,54.5156 2229.2656,54.875 Z " fill="#000000"/><text fill="#000000" font-family="sans-serif" font-size="14" lengthAdjust="spacing" textLength="79" x="2240.5" y="64.7285">BizException</text><line style="stroke:#7F8C8D;stroke-width:0.5;" x1="2212.5" x2="2321.5" y1="75" y2="75"/><line style="stroke:#7F8C8D;stroke-width:0.5;" x1="2212.5" x2="2321.5" y1="83" y2="83"/></g><!--class GlobalExceptionHandler--><g id="elem_GlobalExceptionHandler"><rect codeLine="80" fill="#FFFFFF" height="48" id="GlobalExceptionHandler" rx="2.5" ry="2.5" style="stroke:#7F8C8D;stroke-width:0.5;" width="183" x="1993.5" y="43"/><ellipse cx="2008.5" cy="59" fill="#ADD1B2" rx="11" ry="11" style="stroke:#181818;stroke-width:1.0;"/><path d="M2011.2656,54.875 Q2011.4219,54.6563 2011.6094,54.5469 Q2011.7969,54.4375 2012.0156,54.4375 Q2012.3906,54.4375 2012.625,54.7031 Q2012.8594,54.9531 2012.8594,55.5625 L2012.8594,57.0156 Q2012.8594,57.625 2012.625,57.8906 Q2012.3906,58.1563 2012.0156,58.1563 Q2011.6719,58.1563 2011.4688,57.9531 Q2011.2656,57.7656 2011.1563,57.25 Q2011.1094,56.8906 2010.9219,56.7031 Q2010.5938,56.3281 2009.9844,56.1094 Q2009.375,55.8906 2008.75,55.8906 Q2007.9844,55.8906 2007.3438,56.2188 Q2006.7188,56.5469 2006.2188,57.2969 Q2005.7344,58.0469 2005.7344,59.0781 L2005.7344,60.1719 Q2005.7344,61.4063 2006.625,62.2344 Q2007.5156,63.0469 2009.1094,63.0469 Q2010.0469,63.0469 2010.7031,62.7969 Q2011.0938,62.6406 2011.5156,62.2031 Q2011.7813,61.9375 2011.9219,61.8594 Q2012.0781,61.7813 2012.2813,61.7813 Q2012.6094,61.7813 2012.8594,62.0469 Q2013.125,62.2969 2013.125,62.6406 Q2013.125,62.9844 2012.7813,63.3906 Q2012.2813,63.9688 2011.4844,64.2969 Q2010.4063,64.75 2009.1094,64.75 Q2007.5938,64.75 2006.3906,64.125 Q2005.4063,63.625 2004.7188,62.5625 Q2004.0313,61.4844 2004.0313,60.2031 L2004.0313,59.0469 Q2004.0313,57.7188 2004.6406,56.5781 Q2005.2656,55.4219 2006.3594,54.8125 Q2007.4531,54.1875 2008.6875,54.1875 Q2009.4219,54.1875 2010.0625,54.3594 Q2010.7188,54.5156 2011.2656,54.875 Z " fill="#000000"/><text fill="#000000" font-family="sans-serif" font-size="14" lengthAdjust="spacing" textLength="151" x="2022.5" y="64.7285">GlobalExceptionHandler</text><line style="stroke:#7F8C8D;stroke-width:0.5;" x1="1994.5" x2="2175.5" y1="75" y2="75"/><line style="stroke:#7F8C8D;stroke-width:0.5;" x1="1994.5" x2="2175.5" y1="83" y2="83"/></g><!--class DataInitializer--><g id="elem_DataInitializer"><rect codeLine="84" fill="#FFFFFF" height="48" id="DataInitializer" rx="2.5" ry="2.5" style="stroke:#7F8C8D;stroke-width:0.5;" width="116" x="1819" y="176"/><ellipse cx="1834" cy="192" fill="#ADD1B2" rx="11" ry="11" style="stroke:#181818;stroke-width:1.0;"/><path d="M1836.7656,187.875 Q1836.9219,187.6563 1837.1094,187.5469 Q1837.2969,187.4375 1837.5156,187.4375 Q1837.8906,187.4375 1838.125,187.7031 Q1838.3594,187.9531 1838.3594,188.5625 L1838.3594,190.0156 Q1838.3594,190.625 1838.125,190.8906 Q1837.8906,191.1563 1837.5156,191.1563 Q1837.1719,191.1563 1836.9688,190.9531 Q1836.7656,190.7656 1836.6563,190.25 Q1836.6094,189.8906 1836.4219,189.7031 Q1836.0938,189.3281 1835.4844,189.1094 Q1834.875,188.8906 1834.25,188.8906 Q1833.4844,188.8906 1832.8438,189.2188 Q1832.2188,189.5469 1831.7188,190.2969 Q1831.2344,191.0469 1831.2344,192.0781 L1831.2344,193.1719 Q1831.2344,194.4063 1832.125,195.2344 Q1833.0156,196.0469 1834.6094,196.0469 Q1835.5469,196.0469 1836.2031,195.7969 Q1836.5938,195.6406 1837.0156,195.2031 Q1837.2813,194.9375 1837.4219,194.8594 Q1837.5781,194.7813 1837.7813,194.7813 Q1838.1094,194.7813 1838.3594,195.0469 Q1838.625,195.2969 1838.625,195.6406 Q1838.625,195.9844 1838.2813,196.3906 Q1837.7813,196.9688 1836.9844,197.2969 Q1835.9063,197.75 1834.6094,197.75 Q1833.0938,197.75 1831.8906,197.125 Q1830.9063,196.625 1830.2188,195.5625 Q1829.5313,194.4844 1829.5313,193.2031 L1829.5313,192.0469 Q1829.5313,190.7188 1830.1406,189.5781 Q1830.7656,188.4219 1831.8594,187.8125 Q1832.9531,187.1875 1834.1875,187.1875 Q1834.9219,187.1875 1835.5625,187.3594 Q1836.2188,187.5156 1836.7656,187.875 Z " fill="#000000"/><text fill="#000000" font-family="sans-serif" font-size="14" lengthAdjust="spacing" textLength="84" x="1848" y="197.7285">DataInitializer</text><line style="stroke:#7F8C8D;stroke-width:0.5;" x1="1820" x2="1934" y1="208" y2="208"/><line style="stroke:#7F8C8D;stroke-width:0.5;" x1="1820" x2="1934" y1="216" y2="216"/></g><!--class Application--><g id="elem_Application"><rect codeLine="85" fill="#FFFFFF" height="48" id="Application" rx="2.5" ry="2.5" style="stroke:#7F8C8D;stroke-width:0.5;" width="101" x="1826.5" y="43"/><ellipse cx="1841.5" cy="59" fill="#ADD1B2" rx="11" ry="11" style="stroke:#181818;stroke-width:1.0;"/><path d="M1844.2656,54.875 Q1844.4219,54.6563 1844.6094,54.5469 Q1844.7969,54.4375 1845.0156,54.4375 Q1845.3906,54.4375 1845.625,54.7031 Q1845.8594,54.9531 1845.8594,55.5625 L1845.8594,57.0156 Q1845.8594,57.625 1845.625,57.8906 Q1845.3906,58.1563 1845.0156,58.1563 Q1844.6719,58.1563 1844.4688,57.9531 Q1844.2656,57.7656 1844.1563,57.25 Q1844.1094,56.8906 1843.9219,56.7031 Q1843.5938,56.3281 1842.9844,56.1094 Q1842.375,55.8906 1841.75,55.8906 Q1840.9844,55.8906 1840.3438,56.2188 Q1839.7188,56.5469 1839.2188,57.2969 Q1838.7344,58.0469 1838.7344,59.0781 L1838.7344,60.1719 Q1838.7344,61.4063 1839.625,62.2344 Q1840.5156,63.0469 1842.1094,63.0469 Q1843.0469,63.0469 1843.7031,62.7969 Q1844.0938,62.6406 1844.5156,62.2031 Q1844.7813,61.9375 1844.9219,61.8594 Q1845.0781,61.7813 1845.2813,61.7813 Q1845.6094,61.7813 1845.8594,62.0469 Q1846.125,62.2969 1846.125,62.6406 Q1846.125,62.9844 1845.7813,63.3906 Q1845.2813,63.9688 1844.4844,64.2969 Q1843.4063,64.75 1842.1094,64.75 Q1840.5938,64.75 1839.3906,64.125 Q1838.4063,63.625 1837.7188,62.5625 Q1837.0313,61.4844 1837.0313,60.2031 L1837.0313,59.0469 Q1837.0313,57.7188 1837.6406,56.5781 Q1838.2656,55.4219 1839.3594,54.8125 Q1840.4531,54.1875 1841.6875,54.1875 Q1842.4219,54.1875 1843.0625,54.3594 Q1843.7188,54.5156 1844.2656,54.875 Z " fill="#000000"/><text fill="#000000" font-family="sans-serif" font-size="14" lengthAdjust="spacing" textLength="69" x="1855.5" y="64.7285">Application</text><line style="stroke:#7F8C8D;stroke-width:0.5;" x1="1827.5" x2="1926.5" y1="75" y2="75"/><line style="stroke:#7F8C8D;stroke-width:0.5;" x1="1827.5" x2="1926.5" y1="83" y2="83"/></g><!--reverse link PenaltyPolicy to SimplePenaltyPolicy--><g id="link_PenaltyPolicy_SimplePenaltyPolicy"><path d="M1101,481.2 C1101,524.4 1101,582.08 1101,619.99 " fill="none" id="PenaltyPolicy-backto-SimplePenaltyPolicy" style="stroke:#181818;stroke-width:1.0;stroke-dasharray:7.0,7.0;"/><polygon fill="none" points="1101,463.2,1095,481.2,1107,481.2,1101,463.2" style="stroke:#181818;stroke-width:1.0;"/></g><!--link AuthController to AuthService--><g id="link_AuthController_AuthService"><path codeLine="89" d="M1195.4,91.08 C1181.41,100.31 1164.14,109.94 1147,115 C1098.91,129.2 742.31,112.77 696,132 C673.92,141.17 658.3362,155.7701 645.2262,171.2601 " fill="none" id="AuthController-to-AuthService" style="stroke:#181818;stroke-width:1.0;"/><polygon fill="#181818" points="641.35,175.84,650.2175,171.5543,644.5802,172.0234,644.111,166.3861,641.35,175.84" style="stroke:#181818;stroke-width:1.0;"/></g><!--link ApiController to BookingService--><g id="link_ApiController_BookingService"><path codeLine="90" d="M1020.12,91.12 C966.54,114.99 888.9105,149.5779 835.3405,173.4479 " fill="none" id="ApiController-to-BookingService" style="stroke:#181818;stroke-width:1.0;"/><polygon fill="#181818" points="829.86,175.89,839.7089,175.8806,834.4271,173.855,836.4528,168.5732,829.86,175.89" style="stroke:#181818;stroke-width:1.0;"/></g><!--link ApiController to AuthService--><g id="link_ApiController_AuthService"><path codeLine="91" d="M1014.75,67.73 C938.23,69.54 800.18,80.51 696,132 C675.03,142.36 659.8643,156.3339 646.6043,171.2639 " fill="none" id="ApiController-to-AuthService" style="stroke:#181818;stroke-width:1.0;"/><polygon fill="#181818" points="642.62,175.75,651.5872,171.677,645.9403,172.0116,645.6057,166.3646,642.62,175.75" style="stroke:#181818;stroke-width:1.0;"/></g><!--link BookingService to PenaltyPolicy--><g id="link_BookingService_PenaltyPolicy"><path codeLine="94" d="M819.05,224.13 C839.24,235.86 863.75,250.64 885,265 C948.59,307.97 1014.0859,358.9605 1056.6859,393.0605 " fill="none" id="BookingService-to-PenaltyPolicy" style="stroke:#181818;stroke-width:1.0;"/><polygon fill="#181818" points="1061.37,396.81,1056.8435,388.063,1057.4666,393.6854,1051.8441,394.3085,1061.37,396.81" style="stroke:#181818;stroke-width:1.0;"/></g><!--link BookingService to BookingRepo--><g id="link_BookingService_BookingRepo"><path codeLine="95" d="M745.65,224.05 C731.16,233.16 713.43,242.7 696,248 C644.21,263.75 497.65,234.4 453,265 C405,297.9 387.2411,362.9882 380.4911,399.8382 " fill="none" id="BookingService-to-BookingRepo" style="stroke:#181818;stroke-width:1.0;"/><polygon fill="#181818" points="379.41,405.74,384.9661,397.608,380.3109,400.8218,377.0971,396.1666,379.41,405.74" style="stroke:#181818;stroke-width:1.0;"/></g><!--link BookingService to ResourceRepo--><g id="link_BookingService_ResourceRepo"><path codeLine="96" d="M746.13,224.1 C731.58,233.34 713.67,242.96 696,248 C653.64,260.07 336.82,240.83 300,265 C250.63,297.4 230.9817,363.0878 223.2317,400.0378 " fill="none" id="BookingService-to-ResourceRepo" style="stroke:#181818;stroke-width:1.0;"/><polygon fill="#181818" points="222,405.91,227.7623,397.9228,223.0264,401.0165,219.9327,396.2806,222,405.91" style="stroke:#181818;stroke-width:1.0;"/></g><!--link BookingService to UserAccountRepository--><g id="link_BookingService_UserAccountRepository"><path codeLine="97" d="M737.05,224.1 C708.92,240.16 675.67,259.62 670,265 C625.13,307.61 591.9247,366.5942 574.7347,400.6342 " fill="none" id="BookingService-to-UserAccountRepository" style="stroke:#181818;stroke-width:1.0;"/><polygon fill="#181818" points="572.03,405.99,579.6575,399.7594,574.2839,401.5268,572.5164,396.1532,572.03,405.99" style="stroke:#181818;stroke-width:1.0;"/></g><!--link BookingService to CreditHistoryRepository--><g id="link_BookingService_CreditHistoryRepository"><path codeLine="98" d="M778,224.12 C778,267.82 778,356.08 778,399.82 " fill="none" id="BookingService-to-CreditHistoryRepository" style="stroke:#181818;stroke-width:1.0;"/><polygon fill="#181818" points="778,405.82,782,396.82,778,400.82,774,396.82,778,405.82" style="stroke:#181818;stroke-width:1.0;"/></g><!--link AuthService to UserRepo--><g id="link_AuthService_UserRepo"><path codeLine="99" d="M569.76,201.42 C457.27,203.33 203.55,213.41 137,265 C92.25,299.69 78.4769,363.6079 73.8569,399.9379 " fill="none" id="AuthService-to-UserRepo" style="stroke:#181818;stroke-width:1.0;"/><polygon fill="#181818" points="73.1,405.89,78.2034,397.4665,73.7308,400.9299,70.2673,396.4573,73.1,405.89" style="stroke:#181818;stroke-width:1.0;"/></g><!--link AuthService to UserAccountRepository--><g id="link_AuthService_UserAccountRepository"><path codeLine="100" d="M617.61,224.12 C605.54,267.82 581.0885,356.2969 568.9985,400.0369 " fill="none" id="AuthService-to-UserAccountRepository" style="stroke:#181818;stroke-width:1.0;"/><polygon fill="#181818" points="567.4,405.82,573.6532,398.2109,568.7321,401.0007,565.9423,396.0796,567.4,405.82" style="stroke:#181818;stroke-width:1.0;"/></g><!--link UserAccount to Booking--><g id="link_UserAccount_Booking"><path codeLine="103" d="M1944.61,507.24 C1977.96,532.76 2014.58,560.79 2045.84,584.71 " fill="none" id="UserAccount-Booking" style="stroke:#181818;stroke-width:1.0;"/><polygon fill="#000000" points="2008.9707,549.2145,2003.5738,541.3835,2000.0015,546.0513,2008.9707,549.2145" style="stroke:#000000;stroke-width:1.0;"/><text fill="#000000" font-family="sans-serif" font-size="13" lengthAdjust="spacing" textLength="43" x="2014" y="551.4951">creates</text><text fill="#000000" font-family="sans-serif" font-size="13" lengthAdjust="spacing" textLength="7" x="1945.8695" y="528.0903">1</text><text fill="#000000" font-family="sans-serif" font-size="13" lengthAdjust="spacing" textLength="20" x="2015.3393" y="573.9989">0..*</text></g><!--link ResourceEntity to Booking--><g id="link_ResourceEntity_Booking"><path codeLine="104" d="M2097.67,507.24 C2102.24,532.76 2107.26,560.79 2111.55,584.71 " fill="none" id="ResourceEntity-Booking" style="stroke:#181818;stroke-width:1.0;"/><text fill="#000000" font-family="sans-serif" font-size="13" lengthAdjust="spacing" textLength="7" x="2091.544" y="528.0903">1</text><text fill="#000000" font-family="sans-serif" font-size="13" lengthAdjust="spacing" textLength="20" x="2089.0577" y="573.9989">0..*</text></g><!--link UserAccount to CreditHistory--><g id="link_UserAccount_CreditHistory"><path codeLine="105" d="M1836.37,507.24 C1833.48,532.76 1830.31,560.79 1827.6,584.71 " fill="none" id="UserAccount-CreditHistory" style="stroke:#181818;stroke-width:1.0;"/><polygon fill="#000000" points="1837.4376,551.144,1841.3753,542.487,1835.5347,541.8258,1837.4376,551.144" style="stroke:#000000;stroke-width:1.0;"/><text fill="#000000" font-family="sans-serif" font-size="13" lengthAdjust="spacing" textLength="30" x="1847" y="551.4951">owns</text><text fill="#000000" font-family="sans-serif" font-size="13" lengthAdjust="spacing" textLength="7" x="1828.3276" y="528.0903">1</text><text fill="#000000" font-family="sans-serif" font-size="13" lengthAdjust="spacing" textLength="20" x="1807.1856" y="573.9989">0..*</text></g><!--link AuthController to UserAccount--><g id="link_AuthController_UserAccount"><path codeLine="108" d="M1287.79,83.54 C1383.39,109.66 1569.98,169.14 1703,265 C1736.31,289 1763.2422,317.6045 1787.5022,347.9345 " fill="none" id="AuthController-to-UserAccount" style="stroke:#181818;stroke-width:1.0;stroke-dasharray:7.0,7.0;"/><polygon fill="#181818" points="1791.25,352.62,1788.752,343.0932,1788.1268,348.7154,1782.5046,348.0903,1791.25,352.62" style="stroke:#181818;stroke-width:1.0;"/></g><!--link ApiController to CreateBookingRequest--><g id="link_ApiController_CreateBookingRequest"><path codeLine="109" d="M1104,91.17 C1116.87,99.64 1132.15,108.68 1147,115 C1175.66,127.2 1185.71,121.38 1215,132 C1342.64,178.26 1388.07,175.32 1490,265 C1526.24,296.89 1552.416,338.545 1571.016,374.055 " fill="none" id="ApiController-to-CreateBookingRequest" style="stroke:#181818;stroke-width:1.0;stroke-dasharray:7.0,7.0;"/><polygon fill="#181818" points="1573.8,379.37,1573.1674,369.5415,1571.48,374.9408,1566.0807,373.2535,1573.8,379.37" style="stroke:#181818;stroke-width:1.0;"/></g><!--link ApiController to BookingResponse--><g id="link_ApiController_BookingResponse"><path codeLine="110" d="M1093.35,91.26 C1127.26,127.8 1196.04,200.34 1259,257 C1263.23,260.81 1265.05,260.91 1269,265 C1297.47,294.49 1321.629,325.8418 1343.369,356.7618 " fill="none" id="ApiController-to-BookingResponse" style="stroke:#181818;stroke-width:1.0;stroke-dasharray:7.0,7.0;"/><polygon fill="#181818" points="1346.82,361.67,1344.9157,352.007,1343.9442,357.5798,1338.3714,356.6083,1346.82,361.67" style="stroke:#181818;stroke-width:1.0;"/></g><!--link BookingService to BookingResponse--><g id="link_BookingService_BookingResponse"><path codeLine="111" d="M843.08,212.68 C916.27,225.41 1038.79,245.49 1145,257 C1172.45,259.97 1244.74,251.81 1269,265 C1308.29,286.35 1335.4287,321.2262 1355.9387,356.4162 " fill="none" id="BookingService-to-BookingResponse" style="stroke:#181818;stroke-width:1.0;stroke-dasharray:7.0,7.0;"/><polygon fill="#181818" points="1358.96,361.6,1357.8839,351.8101,1356.4422,357.2802,1350.9722,355.8385,1358.96,361.6" style="stroke:#181818;stroke-width:1.0;"/></g><!--link DataInitializer to UserAccount--><g id="link_DataInitializer_UserAccount"><path codeLine="114" d="M1873.76,224.12 C1869.54,254.12 1862.8241,302.0083 1856.5141,346.9583 " fill="none" id="DataInitializer-to-UserAccount" style="stroke:#181818;stroke-width:1.0;stroke-dasharray:7.0,7.0;"/><polygon fill="#181818" points="1855.68,352.9,1860.8923,344.5434,1856.3751,347.9485,1852.97,343.4313,1855.68,352.9" style="stroke:#181818;stroke-width:1.0;"/></g><!--link DataInitializer to ResourceEntity--><g id="link_DataInitializer_ResourceEntity"><path codeLine="115" d="M1913.67,224.26 C1930,235.52 1948.9,249.87 1964,265 C1990.29,291.35 2011.8552,318.9204 2032.1652,348.0104 " fill="none" id="DataInitializer-to-ResourceEntity" style="stroke:#181818;stroke-width:1.0;stroke-dasharray:7.0,7.0;"/><polygon fill="#181818" points="2035.6,352.93,2033.7276,343.2608,2032.7377,348.8303,2027.1681,347.8404,2035.6,352.93" style="stroke:#181818;stroke-width:1.0;"/></g><!--link Application to DataInitializer--><g id="link_Application_DataInitializer"><path codeLine="116" d="M1877,91.12 C1877,114.92 1877,145.8 1877,169.67 " fill="none" id="Application-to-DataInitializer" style="stroke:#181818;stroke-width:1.0;stroke-dasharray:7.0,7.0;"/><polygon fill="#181818" points="1877,175.67,1881,166.67,1877,170.67,1873,166.67,1877,175.67" style="stroke:#181818;stroke-width:1.0;"/></g><!--SRC=[fLNBRXCn5DtFLrXXmKjDO4KLLP7IIKGZzQMa_G3NumIha_5WEoq1PGTIAL0XAegeA18IgDq0Ym92RU5hCWsi-Wju7fdQCouBo2evzzvpNyStV9LuFcIm2v0BEGSFB02c8LhjCDhp79kwb85BxUWJMYXpC4lGM-r9DEbO0ukd7BwCX1tS4dqN0uQHW5x7nPQLuA20g2SOTLtC2b6gE6cr9-xOgUKSzec23XGQZjaQGJZBqOhX59kcL9RM6SCgWqExa7X5x0aY-YhFikIk8YIx5n4Am7NYbC4izJhnBmIxVe_Ra4cq9HWPunxiOXtn9TywpVh9Tb8_0AQcbblrPgbQcslCLof91eOT8bg8CkdOy0JkH4CPf3KsCQSzXd0zgjvSPhuSqVSpY4iH58HwEegWd9BaLNDBc0ieUbnn7MJdR2v4nZ6nHC9gQb3Wy5jim9vZWlKyuOJiPhswLA-LxEgyNP-T3Ryjp2tErYKMZUoy43kQt0pXWh8Bvk9WLy1CQmn3dfk210LsgaAhRs0IaKzTWX8H4SdBsX1Xi8Wzw8h-OcGSrm9zt-qlh67cz73YS6KbdbvvFCQhvP15wwj5khwBTSO8wae1SpsLgK97K5NZTjHRagw9x_OmJyNE4cqr_ds9EM58lVhKuzYyaN76-PnY_qywkNKnx5DEGcbaTnK- -gQqvi3a4ZJJICrZ_0vpeMdV6LpJfqAgLedl8Uo7hrBTs3IvNn_ZANZRfIlGJV4Pw3dPGodlRPjqL2OvCTZmY23G9VUrO-jBzKJd86Iu3897XwF3uxEJtTEj_M3ZM_3wOFXpxzVNdTCtpuBDTvP-iy74H4KxmThjZgoPOvntKCDb_ZXFd7FqSMVqyiFm-zRmU3iushPqhYXQVmC61tKd1hEsIuFTh0Q3uqKxLjfB2QDa9aC-KxYHJs-7FxP_l_eIhyPI_weADmio61Hk58lN2kb1BeFuZ75GiJ9_6iQ0lr3gfxKCwBeNiigoQaiBGAucbKaftjnez-7mwFtmwCNPoKQynREJnrdP58jQlnbLX5RJhJAuPIvDTZ4cbt2Y6tl1_fFWwKufUFuvs3omCgyZLv_9hW_MKXvIPCu-k3y0]--></g></svg>