<?xml version="1.0" encoding="us-ascii" standalone="no"?><svg xmlns="http://www.w3.org/2000/svg" xmlns:xlink="http://www.w3.org/1999/xlink" contentStyleType="text/css" height="491px" preserveAspectRatio="none" style="width:762px;height:491px;background:#FFFFFF;" version="1.1" viewBox="0 0 762 491" width="762px" zoomAndPan="magnify"><defs/><g><!--class UA--><g id="elem_UA"><rect codeLine="7" fill="#FFFFFF" height="199.5781" id="UA" rx="2.5" ry="2.5" style="stroke:#7F8C8D;stroke-width:0.5;" width="277" x="74" y="7"/><text fill="#000000" font-family="sans-serif" font-size="12" font-style="italic" lengthAdjust="spacing" textLength="42" x="191.5" y="24.457">&#171;table&#187;</text><text fill="#000000" font-family="sans-serif" font-size="14" lengthAdjust="spacing" textLength="86" x="169.5" y="41.627">user_account</text><line style="stroke:#7F8C8D;stroke-width:0.5;" x1="75" x2="350" y1="49.7031" y2="49.7031"/><ellipse cx="85" cy="64.0078" fill="none" rx="3" ry="3" style="stroke:#038048;stroke-width:1.0;"/><text fill="#000000" font-family="sans-serif" font-size="14" lengthAdjust="spacing" textLength="97" x="94" y="68.2363">id : BIGINT [PK]</text><ellipse cx="85" cy="81.6172" fill="none" rx="3" ry="3" style="stroke:#038048;stroke-width:1.0;"/><text fill="#000000" font-family="sans-serif" font-size="14" lengthAdjust="spacing" textLength="111" x="94" y="85.8457">credit_score : INT</text><ellipse cx="85" cy="99.2266" fill="none" rx="3" ry="3" style="stroke:#038048;stroke-width:1.0;"/><text fill="#000000" font-family="sans-serif" font-size="14" lengthAdjust="spacing" textLength="149" x="94" y="103.4551">created_at : DATETIME</text><ellipse cx="85" cy="116.8359" fill="none" rx="3" ry="3" style="stroke:#038048;stroke-width:1.0;"/><text fill="#000000" font-family="sans-serif" font-size="14" lengthAdjust="spacing" textLength="153" x="94" y="121.0645">updated_at : DATETIME</text><line style="stroke:#7F8C8D;stroke-width:0.5;" x1="75" x2="350" y1="128.1406" y2="128.1406"/><ellipse cx="85" cy="142.4453" fill="#84BE84" rx="3" ry="3" style="stroke:#038048;stroke-width:1.0;"/><text fill="#000000" font-family="sans-serif" font-size="14" lengthAdjust="spacing" textLength="251" x="94" y="146.6738">campus_card : VARCHAR(64) [UNIQUE]</text><ellipse cx="85" cy="160.0547" fill="#84BE84" rx="3" ry="3" style="stroke:#038048;stroke-width:1.0;"/><text fill="#000000" font-family="sans-serif" font-size="14" lengthAdjust="spacing" textLength="147" x="94" y="164.2832">name : VARCHAR(100)</text><ellipse cx="85" cy="177.6641" fill="#84BE84" rx="3" ry="3" style="stroke:#038048;stroke-width:1.0;"/><text fill="#000000" font-family="sans-serif" font-size="14" lengthAdjust="spacing" textLength="172" x="94" y="181.8926">password : VARCHAR(255)</text><ellipse cx="85" cy="195.2734" fill="#84BE84" rx="3" ry="3" style="stroke:#038048;stroke-width:1.0;"/><text fill="#000000" font-family="sans-serif" font-size="14" lengthAdjust="spacing" textLength="128" x="94" y="199.502">role : VARCHAR(16)</text></g><!--class RE--><g id="elem_RE"><rect codeLine="18" fill="#FFFFFF" height="199.5781" id="RE" rx="2.5" ry="2.5" style="stroke:#7F8C8D;stroke-width:0.5;" width="179" x="450" y="7"/><text fill="#000000" font-family="sans-serif" font-size="12" font-style="italic" lengthAdjust="spacing" textLength="42" x="518.5" y="24.457">&#171;table&#187;</text><text fill="#000000" font-family="sans-serif" font-size="14" lengthAdjust="spacing" textLength="56" x="511.5" y="41.627">resource</text><line style="stroke:#7F8C8D;stroke-width:0.5;" x1="451" x2="628" y1="49.7031" y2="49.7031"/><ellipse cx="461" cy="64.0078" fill="none" rx="3" ry="3" style="stroke:#038048;stroke-width:1.0;"/><text fill="#000000" font-family="sans-serif" font-size="14" lengthAdjust="spacing" textLength="97" x="470" y="68.2363">id : BIGINT [PK]</text><ellipse cx="461" cy="81.6172" fill="none" rx="3" ry="3" style="stroke:#038048;stroke-width:1.0;"/><text fill="#000000" font-family="sans-serif" font-size="14" lengthAdjust="spacing" textLength="85" x="470" y="85.8457">capacity : INT</text><ellipse cx="461" cy="99.2266" fill="none" rx="3" ry="3" style="stroke:#038048;stroke-width:1.0;"/><text fill="#000000" font-family="sans-serif" font-size="14" lengthAdjust="spacing" textLength="149" x="470" y="103.4551">created_at : DATETIME</text><ellipse cx="461" cy="116.8359" fill="none" rx="3" ry="3" style="stroke:#038048;stroke-width:1.0;"/><text fill="#000000" font-family="sans-serif" font-size="14" lengthAdjust="spacing" textLength="153" x="470" y="121.0645">updated_at : DATETIME</text><line style="stroke:#7F8C8D;stroke-width:0.5;" x1="451" x2="628" y1="128.1406" y2="128.1406"/><ellipse cx="461" cy="142.4453" fill="#84BE84" rx="3" ry="3" style="stroke:#038048;stroke-width:1.0;"/><text fill="#000000" font-family="sans-serif" font-size="14" lengthAdjust="spacing" textLength="147" x="470" y="146.6738">name : VARCHAR(100)</text><ellipse cx="461" cy="160.0547" fill="#84BE84" rx="3" ry="3" style="stroke:#038048;stroke-width:1.0;"/><text fill="#000000" font-family="sans-serif" font-size="14" lengthAdjust="spacing" textLength="131" x="470" y="164.2832">type : VARCHAR(32)</text><ellipse cx="461" cy="177.6641" fill="#84BE84" rx="3" ry="3" style="stroke:#038048;stroke-width:1.0;"/><text fill="#000000" font-family="sans-serif" font-size="14" lengthAdjust="spacing" textLength="153" x="470" y="181.8926">location : VARCHAR(64)</text><ellipse cx="461" cy="195.2734" fill="#84BE84" rx="3" ry="3" style="stroke:#038048;stroke-width:1.0;"/><text fill="#000000" font-family="sans-serif" font-size="14" lengthAdjust="spacing" textLength="142" x="470" y="199.502">status : VARCHAR(16)</text></g><!--class BK--><g id="elem_BK"><rect codeLine="29" fill="#FFFFFF" height="199.5781" id="BK" rx="2.5" ry="2.5" style="stroke:#7F8C8D;stroke-width:0.5;" width="432" x="323.5" y="285"/><text fill="#000000" font-family="sans-serif" font-size="12" font-style="italic" lengthAdjust="spacing" textLength="42" x="518.5" y="302.457">&#171;table&#187;</text><text fill="#000000" font-family="sans-serif" font-size="14" lengthAdjust="spacing" textLength="50" x="514.5" y="319.627">booking</text><line style="stroke:#7F8C8D;stroke-width:0.5;" x1="324.5" x2="754.5" y1="327.7031" y2="327.7031"/><ellipse cx="334.5" cy="342.0078" fill="none" rx="3" ry="3" style="stroke:#038048;stroke-width:1.0;"/><text fill="#000000" font-family="sans-serif" font-size="14" lengthAdjust="spacing" textLength="97" x="343.5" y="346.2363">id : BIGINT [PK]</text><ellipse cx="334.5" cy="359.6172" fill="none" rx="3" ry="3" style="stroke:#038048;stroke-width:1.0;"/><text fill="#000000" font-family="sans-serif" font-size="14" lengthAdjust="spacing" textLength="255" x="343.5" y="363.8457">user_id : BIGINT [FK -&gt; user_account.id]</text><ellipse cx="334.5" cy="377.2266" fill="none" rx="3" ry="3" style="stroke:#038048;stroke-width:1.0;"/><text fill="#000000" font-family="sans-serif" font-size="14" lengthAdjust="spacing" textLength="253" x="343.5" y="381.4551">resource_id : BIGINT [FK -&gt; resource.id]</text><ellipse cx="334.5" cy="394.8359" fill="none" rx="3" ry="3" style="stroke:#038048;stroke-width:1.0;"/><text fill="#000000" font-family="sans-serif" font-size="14" lengthAdjust="spacing" textLength="143" x="343.5" y="399.0645">start_time : DATETIME</text><ellipse cx="334.5" cy="412.4453" fill="none" rx="3" ry="3" style="stroke:#038048;stroke-width:1.0;"/><text fill="#000000" font-family="sans-serif" font-size="14" lengthAdjust="spacing" textLength="139" x="343.5" y="416.6738">end_time : DATETIME</text><ellipse cx="334.5" cy="430.0547" fill="none" rx="3" ry="3" style="stroke:#038048;stroke-width:1.0;"/><text fill="#000000" font-family="sans-serif" font-size="14" lengthAdjust="spacing" textLength="149" x="343.5" y="434.2832">created_at : DATETIME</text><ellipse cx="334.5" cy="447.6641" fill="none" rx="3" ry="3" style="stroke:#038048;stroke-width:1.0;"/><text fill="#000000" font-family="sans-serif" font-size="14" lengthAdjust="spacing" textLength="153" x="343.5" y="451.8926">updated_at : DATETIME</text><line style="stroke:#7F8C8D;stroke-width:0.5;" x1="324.5" x2="754.5" y1="458.9688" y2="458.9688"/><ellipse cx="334.5" cy="473.2734" fill="#84BE84" rx="3" ry="3" style="stroke:#038048;stroke-width:1.0;"/><text fill="#000000" font-family="sans-serif" font-size="14" lengthAdjust="spacing" textLength="406" x="343.5" y="477.502">status : VARCHAR(16)  -- CREATED/CANCELLED/COMPLETED</text></g><!--class CH--><g id="elem_CH"><rect codeLine="40" fill="#FFFFFF" height="146.75" id="CH" rx="2.5" ry="2.5" style="stroke:#7F8C8D;stroke-width:0.5;" width="281" x="7" y="311.5"/><text fill="#000000" font-family="sans-serif" font-size="12" font-style="italic" lengthAdjust="spacing" textLength="42" x="126.5" y="328.957">&#171;table&#187;</text><text fill="#000000" font-family="sans-serif" font-size="14" lengthAdjust="spacing" textLength="85" x="105" y="346.127">credit_history</text><line style="stroke:#7F8C8D;stroke-width:0.5;" x1="8" x2="287" y1="354.2031" y2="354.2031"/><ellipse cx="18" cy="368.5078" fill="none" rx="3" ry="3" style="stroke:#038048;stroke-width:1.0;"/><text fill="#000000" font-family="sans-serif" font-size="14" lengthAdjust="spacing" textLength="97" x="27" y="372.7363">id : BIGINT [PK]</text><ellipse cx="18" cy="386.1172" fill="none" rx="3" ry="3" style="stroke:#038048;stroke-width:1.0;"/><text fill="#000000" font-family="sans-serif" font-size="14" lengthAdjust="spacing" textLength="255" x="27" y="390.3457">user_id : BIGINT [FK -&gt; user_account.id]</text><ellipse cx="18" cy="403.7266" fill="none" rx="3" ry="3" style="stroke:#038048;stroke-width:1.0;"/><text fill="#000000" font-family="sans-serif" font-size="14" lengthAdjust="spacing" textLength="64" x="27" y="407.9551">delta : INT</text><ellipse cx="18" cy="421.3359" fill="none" rx="3" ry="3" style="stroke:#038048;stroke-width:1.0;"/><text fill="#000000" font-family="sans-serif" font-size="14" lengthAdjust="spacing" textLength="149" x="27" y="425.5645">created_at : DATETIME</text><line style="stroke:#7F8C8D;stroke-width:0.5;" x1="8" x2="287" y1="432.6406" y2="432.6406"/><ellipse cx="18" cy="446.9453" fill="#84BE84" rx="3" ry="3" style="stroke:#038048;stroke-width:1.0;"/><text fill="#000000" font-family="sans-serif" font-size="14" lengthAdjust="spacing" textLength="156" x="27" y="451.1738">reason : VARCHAR(255)</text></g><!--link UA to BK--><g id="link_UA_BK"><path codeLine="48" d="M336.2035,212.4099 C366.1435,237.6799 378.4442,248.0606 408.3742,273.3206 " fill="none" id="UA-BK" style="stroke:#181818;stroke-width:1.0;"/><line style="stroke:#181818;stroke-width:1.0;" x1="330.5668" x2="335.7267" y1="212.8867" y2="206.7732"/><line style="stroke:#181818;stroke-width:1.0;" x1="332.8594" x2="338.0193" y1="214.8217" y2="208.7082"/><line style="stroke:#181818;stroke-width:1.0;" x1="336.2035" x2="330.09" y1="212.4099" y2="207.25"/><line style="stroke:#181818;stroke-width:1.0;" x1="416.0163" x2="425.9998" y1="279.7702" y2="280.3447"/><line style="stroke:#181818;stroke-width:1.0;" x1="416.0163" x2="418.2602" y1="279.7702" y2="289.5153"/><line style="stroke:#181818;stroke-width:1.0;" x1="416.0163" x2="422.13" y1="279.7702" y2="284.93"/><ellipse cx="411.4311" cy="275.9004" fill="none" rx="4" ry="4" style="stroke:#181818;stroke-width:1.0;"/><text fill="#000000" font-family="sans-serif" font-size="13" lengthAdjust="spacing" textLength="63" x="386.5" y="251.4951">FK user_id</text></g><!--link RE to BK--><g id="link_RE_BK"><path codeLine="49" d="M539.5,215.25 C539.5,240.44 539.5,241.51 539.5,266.7 " fill="none" id="RE-BK" style="stroke:#181818;stroke-width:1.0;"/><line style="stroke:#181818;stroke-width:1.0;" x1="535.5" x2="543.5" y1="211.25" y2="211.25"/><line style="stroke:#181818;stroke-width:1.0;" x1="535.5" x2="543.5" y1="214.25" y2="214.25"/><line style="stroke:#181818;stroke-width:1.0;" x1="539.5" x2="539.5" y1="215.25" y2="207.25"/><line style="stroke:#181818;stroke-width:1.0;" x1="539.5" x2="545.5" y1="276.7" y2="284.7"/><line style="stroke:#181818;stroke-width:1.0;" x1="539.5" x2="533.5" y1="276.7" y2="284.7"/><line style="stroke:#181818;stroke-width:1.0;" x1="539.5" x2="539.5" y1="276.7" y2="284.7"/><ellipse cx="539.5" cy="270.7" fill="none" rx="4" ry="4" style="stroke:#181818;stroke-width:1.0;"/><text fill="#000000" font-family="sans-serif" font-size="13" lengthAdjust="spacing" textLength="88" x="540.5" y="251.4951">FK resource_id</text></g><!--link UA to CH--><g id="link_UA_CH"><path codeLine="50" d="M187.2962,215.037 C179.2162,249.347 176.2779,261.8297 168.7879,293.6197 " fill="none" id="UA-CH" style="stroke:#181818;stroke-width:1.0;"/><line style="stroke:#181818;stroke-width:1.0;" x1="184.3196" x2="192.1066" y1="210.2266" y2="212.0604"/><line style="stroke:#181818;stroke-width:1.0;" x1="183.6319" x2="191.4189" y1="213.1467" y2="214.9805"/><line style="stroke:#181818;stroke-width:1.0;" x1="187.2962" x2="189.13" y1="215.037" y2="207.25"/><line style="stroke:#181818;stroke-width:1.0;" x1="166.4946" x2="170.5001" y1="303.3532" y2="312.516"/><line style="stroke:#181818;stroke-width:1.0;" x1="166.4946" x2="158.8199" y1="303.3532" y2="309.764"/><line style="stroke:#181818;stroke-width:1.0;" x1="166.4946" x2="164.66" y1="303.3532" y2="311.14"/><ellipse cx="167.8706" cy="297.5131" fill="none" rx="4" ry="4" style="stroke:#181818;stroke-width:1.0;"/><text fill="#000000" font-family="sans-serif" font-size="13" lengthAdjust="spacing" textLength="63" x="183.5" y="251.4951">FK user_id</text></g><!--SRC=[jLDTIyCm57tlhxZeYoBrUrD41brNTUp3EJPVHCfTahbWrvGaHSRcVpTDjzbA1L7iKpZddkQUSszcd38WN9A8EUgLnmbAd0E9K2bOEW1D9AylKgGnzKKa9EnExPSnGb8cr-Z5z99SKkVTSNBfJggO394GezGxW0h67bnVQvn4hD6mVpu0Jk4AcktRTdy4JuFEimK9pfDKXGHbnZvwG__E6-xLp_VXQTnlFuo3l2p6EIlm9yV7-nPFpErlegGzhTLoJegefAddC96CSXqg8cH6csusC6f6GzG6R7cZODJk1PP94rh1V7gNJ8bK4cPz3uEV-VxEa5uaHVpiD8SZGL1p4PSpMYUO8E5wKV2YDEfKLNl_fSc946PTNgp7PkTd7krIb9YR3hWDA2xB8QTvyIR5Ai66snORWrA7cjiCIpvOJ2lngaW0N1VyOM3gMaU-r_U3RZSxtVS6tS1WVunilMWphhIG2vkSV_SFoL4MQInCtpIiIfkoVH7LNap7vhMkLguhbjbihy1Sjkx0CVlyXIaCgg0ppagw3m00]--></g></svg>