<?xml version="1.0" encoding="us-ascii" standalone="no"?><svg xmlns="http://www.w3.org/2000/svg" xmlns:xlink="http://www.w3.org/1999/xlink" contentStyleType="text/css" height="1675px" preserveAspectRatio="none" style="width:1633px;height:1675px;background:#FFFFFF;" version="1.1" viewBox="0 0 1633 1675" width="1633px" zoomAndPan="magnify"><defs/><g><!--cluster client (React/Tailwind/Vite)--><g id="cluster_client (React/Tailwind/Vite)"><rect fill="none" height="266" rx="2.5" ry="2.5" style="stroke:#181818;stroke-width:1.0;" width="778.5" x="7" y="7"/><text fill="#000000" font-family="sans-serif" font-size="14" font-weight="bold" lengthAdjust="spacing" textLength="185" x="303.75" y="23.5332">client (React/Tailwind/Vite)</text></g><!--cluster server (Spring Boot)--><g id="cluster_server (Spring Boot)"><rect fill="none" height="1372" rx="2.5" ry="2.5" style="stroke:#181818;stroke-width:1.0;" width="1297.5" x="330" y="297"/><text fill="#000000" font-family="sans-serif" font-size="14" font-weight="bold" lengthAdjust="spacing" textLength="144" x="906.75" y="313.5332">server (Spring Boot)</text></g><!--cluster controller--><g id="cluster_controller"><rect fill="none" height="218" rx="2.5" ry="2.5" style="stroke:#181818;stroke-width:1.0;" width="179" x="362" y="809"/><text fill="#000000" font-family="sans-serif" font-size="14" font-weight="bold" lengthAdjust="spacing" textLength="69" x="417" y="825.5332">controller</text></g><!--cluster service--><g id="cluster_service"><rect fill="none" height="218" rx="2.5" ry="2.5" style="stroke:#181818;stroke-width:1.0;" width="186" x="590" y="809"/><text fill="#000000" font-family="sans-serif" font-size="14" font-weight="bold" lengthAdjust="spacing" textLength="53" x="656.5" y="825.5332">service</text></g><!--cluster domain--><g id="cluster_domain"><rect fill="none" height="947" rx="2.5" ry="2.5" style="stroke:#181818;stroke-width:1.0;" width="502" x="1093.5" y="690"/><text fill="#000000" font-family="sans-serif" font-size="14" font-weight="bold" lengthAdjust="spacing" textLength="51" x="1319" y="706.5332">domain</text></g><!--cluster entity--><g id="cluster_entity"><rect fill="none" height="218" rx="2.5" ry="2.5" style="stroke:#181818;stroke-width:1.0;" width="410.5" x="1145" y="750"/><text fill="#000000" font-family="sans-serif" font-size="14" font-weight="bold" lengthAdjust="spacing" textLength="39" x="1330.75" y="766.5332">entity</text></g><!--cluster policy--><g id="cluster_policy"><rect fill="none" height="183" rx="2.5" ry="2.5" style="stroke:#181818;stroke-width:1.0;" width="198" x="1138" y="1000"/><text fill="#000000" font-family="sans-serif" font-size="14" font-weight="bold" lengthAdjust="spacing" textLength="41" x="1216.5" y="1016.5332">policy</text></g><!--cluster dto--><g id="cluster_dto"><rect fill="none" height="183" rx="2.5" ry="2.5" style="stroke:#181818;stroke-width:1.0;" width="219" x="1127.5" y="1207"/><text fill="#000000" font-family="sans-serif" font-size="14" font-weight="bold" lengthAdjust="spacing" textLength="23" x="1225.5" y="1223.5332">dto</text></g><!--cluster exception--><g id="cluster_exception"><rect fill="none" height="183" rx="2.5" ry="2.5" style="stroke:#181818;stroke-width:1.0;" width="223" x="1125.5" y="1414"/><text fill="#000000" font-family="sans-serif" font-size="14" font-weight="bold" lengthAdjust="spacing" textLength="70" x="1202" y="1430.5332">exception</text></g><!--cluster repository--><g id="cluster_repository"><rect fill="none" height="301" rx="2.5" ry="2.5" style="stroke:#181818;stroke-width:1.0;" width="529" x="826.5" y="349"/><text fill="#000000" font-family="sans-serif" font-size="14" font-weight="bold" lengthAdjust="spacing" textLength="72" x="1055" y="365.5332">repository</text></g><!--cluster config--><g id="cluster_config"><rect fill="none" height="218" rx="2.5" ry="2.5" style="stroke:#181818;stroke-width:1.0;" width="172" x="858.5" y="1419"/><text fill="#000000" font-family="sans-serif" font-size="14" font-weight="bold" lengthAdjust="spacing" textLength="44" x="922.5" y="1435.5332">config</text></g><!--entity LoginForm.jsx--><g id="elem_LoginForm.jsx"><rect fill="#F1F1F1" height="47.6094" rx="2.5" ry="2.5" style="stroke:#181818;stroke-width:0.5;" width="128" x="31" y="209"/><rect fill="#F1F1F1" height="10" style="stroke:#181818;stroke-width:0.5;" width="15" x="139" y="214"/><rect fill="#F1F1F1" height="2" style="stroke:#181818;stroke-width:0.5;" width="4" x="137" y="216"/><rect fill="#F1F1F1" height="2" style="stroke:#181818;stroke-width:0.5;" width="4" x="137" y="220"/><text fill="#000000" font-family="sans-serif" font-size="14" lengthAdjust="spacing" textLength="88" x="46" y="243.5332">LoginForm.jsx</text></g><!--entity ResourceList.jsx--><g id="elem_ResourceList.jsx"><rect fill="#F1F1F1" height="47.6094" rx="2.5" ry="2.5" style="stroke:#181818;stroke-width:0.5;" width="143" x="23.5" y="126"/><rect fill="#F1F1F1" height="10" style="stroke:#181818;stroke-width:0.5;" width="15" x="146.5" y="131"/><rect fill="#F1F1F1" height="2" style="stroke:#181818;stroke-width:0.5;" width="4" x="144.5" y="133"/><rect fill="#F1F1F1" height="2" style="stroke:#181818;stroke-width:0.5;" width="4" x="144.5" y="137"/><text fill="#000000" font-family="sans-serif" font-size="14" lengthAdjust="spacing" textLength="103" x="38.5" y="160.5332">ResourceList.jsx</text></g><!--entity BookingForm.jsx--><g id="elem_BookingForm.jsx"><rect fill="#F1F1F1" height="47.6094" rx="2.5" ry="2.5" style="stroke:#181818;stroke-width:0.5;" width="144" x="23" y="43"/><rect fill="#F1F1F1" height="10" style="stroke:#181818;stroke-width:0.5;" width="15" x="147" y="48"/><rect fill="#F1F1F1" height="2" style="stroke:#181818;stroke-width:0.5;" width="4" x="145" y="50"/><rect fill="#F1F1F1" height="2" style="stroke:#181818;stroke-width:0.5;" width="4" x="145" y="54"/><text fill="#000000" font-family="sans-serif" font-size="14" lengthAdjust="spacing" textLength="104" x="38" y="77.5332">BookingForm.jsx</text></g><!--entity MyBookings.jsx--><g id="elem_MyBookings.jsx"><rect fill="#F1F1F1" height="47.6094" rx="2.5" ry="2.5" style="stroke:#181818;stroke-width:0.5;" width="136" x="383.5" y="209"/><rect fill="#F1F1F1" height="10" style="stroke:#181818;stroke-width:0.5;" width="15" x="499.5" y="214"/><rect fill="#F1F1F1" height="2" style="stroke:#181818;stroke-width:0.5;" width="4" x="497.5" y="216"/><rect fill="#F1F1F1" height="2" style="stroke:#181818;stroke-width:0.5;" width="4" x="497.5" y="220"/><text fill="#000000" font-family="sans-serif" font-size="14" lengthAdjust="spacing" textLength="96" x="398.5" y="243.5332">MyBookings.jsx</text></g><!--entity MyInfo.jsx--><g id="elem_MyInfo.jsx"><rect fill="#F1F1F1" height="47.6094" rx="2.5" ry="2.5" style="stroke:#181818;stroke-width:0.5;" width="101" x="401" y="126"/><rect fill="#F1F1F1" height="10" style="stroke:#181818;stroke-width:0.5;" width="15" x="482" y="131"/><rect fill="#F1F1F1" height="2" style="stroke:#181818;stroke-width:0.5;" width="4" x="480" y="133"/><rect fill="#F1F1F1" height="2" style="stroke:#181818;stroke-width:0.5;" width="4" x="480" y="137"/><text fill="#000000" font-family="sans-serif" font-size="14" lengthAdjust="spacing" textLength="61" x="416" y="160.5332">MyInfo.jsx</text></g><!--entity AdminResource.jsx--><g id="elem_AdminResource.jsx"><rect fill="#F1F1F1" height="47.6094" rx="2.5" ry="2.5" style="stroke:#181818;stroke-width:0.5;" width="160" x="371.5" y="43"/><rect fill="#F1F1F1" height="10" style="stroke:#181818;stroke-width:0.5;" width="15" x="511.5" y="48"/><rect fill="#F1F1F1" height="2" style="stroke:#181818;stroke-width:0.5;" width="4" x="509.5" y="50"/><rect fill="#F1F1F1" height="2" style="stroke:#181818;stroke-width:0.5;" width="4" x="509.5" y="54"/><text fill="#000000" font-family="sans-serif" font-size="14" lengthAdjust="spacing" textLength="120" x="386.5" y="77.5332">AdminResource.jsx</text></g><!--entity utils.js <<api('/api/...')>>--><g id="elem_utils.js &lt;&lt;api('/api/...')&gt;&gt;"><rect fill="#F1F1F1" height="47.6094" rx="2.5" ry="2.5" style="stroke:#181818;stroke-width:0.5;" width="173" x="596.5" y="209"/><rect fill="#F1F1F1" height="10" style="stroke:#181818;stroke-width:0.5;" width="15" x="749.5" y="214"/><rect fill="#F1F1F1" height="2" style="stroke:#181818;stroke-width:0.5;" width="4" x="747.5" y="216"/><rect fill="#F1F1F1" height="2" style="stroke:#181818;stroke-width:0.5;" width="4" x="747.5" y="220"/><text fill="#000000" font-family="sans-serif" font-size="14" lengthAdjust="spacing" textLength="133" x="611.5" y="243.5332">utils.js &#171;api('/api/...')&#187;</text></g><!--entity AuthController--><g id="elem_AuthController"><rect fill="#F1F1F1" height="47.6094" rx="2.5" ry="2.5" style="stroke:#181818;stroke-width:0.5;" width="131" x="386" y="853"/><rect fill="#F1F1F1" height="10" style="stroke:#181818;stroke-width:0.5;" width="15" x="497" y="858"/><rect fill="#F1F1F1" height="2" style="stroke:#181818;stroke-width:0.5;" width="4" x="495" y="860"/><rect fill="#F1F1F1" height="2" style="stroke:#181818;stroke-width:0.5;" width="4" x="495" y="864"/><text fill="#000000" font-family="sans-serif" font-size="14" lengthAdjust="spacing" textLength="91" x="401" y="887.5332">AuthController</text></g><!--entity ApiController--><g id="elem_ApiController"><rect fill="#F1F1F1" height="47.6094" rx="2.5" ry="2.5" style="stroke:#181818;stroke-width:0.5;" width="122" x="390.5" y="936"/><rect fill="#F1F1F1" height="10" style="stroke:#181818;stroke-width:0.5;" width="15" x="492.5" y="941"/><rect fill="#F1F1F1" height="2" style="stroke:#181818;stroke-width:0.5;" width="4" x="490.5" y="943"/><rect fill="#F1F1F1" height="2" style="stroke:#181818;stroke-width:0.5;" width="4" x="490.5" y="947"/><text fill="#000000" font-family="sans-serif" font-size="14" lengthAdjust="spacing" textLength="82" x="405.5" y="970.5332">ApiController</text></g><!--entity AuthService--><g id="elem_AuthService"><rect fill="#F1F1F1" height="47.6094" rx="2.5" ry="2.5" style="stroke:#181818;stroke-width:0.5;" width="116" x="625" y="853"/><rect fill="#F1F1F1" height="10" style="stroke:#181818;stroke-width:0.5;" width="15" x="721" y="858"/><rect fill="#F1F1F1" height="2" style="stroke:#181818;stroke-width:0.5;" width="4" x="719" y="860"/><rect fill="#F1F1F1" height="2" style="stroke:#181818;stroke-width:0.5;" width="4" x="719" y="864"/><text fill="#000000" font-family="sans-serif" font-size="14" lengthAdjust="spacing" textLength="76" x="640" y="887.5332">AuthService</text></g><!--entity BookingService--><g id="elem_BookingService"><rect fill="#F1F1F1" height="47.6094" rx="2.5" ry="2.5" style="stroke:#181818;stroke-width:0.5;" width="138" x="614" y="936"/><rect fill="#F1F1F1" height="10" style="stroke:#181818;stroke-width:0.5;" width="15" x="732" y="941"/><rect fill="#F1F1F1" height="2" style="stroke:#181818;stroke-width:0.5;" width="4" x="730" y="943"/><rect fill="#F1F1F1" height="2" style="stroke:#181818;stroke-width:0.5;" width="4" x="730" y="947"/><text fill="#000000" font-family="sans-serif" font-size="14" lengthAdjust="spacing" textLength="98" x="629" y="970.5332">BookingService</text></g><!--entity UserAccount--><g id="elem_UserAccount"><rect fill="#F1F1F1" height="47.6094" rx="2.5" ry="2.5" style="stroke:#181818;stroke-width:0.5;" width="120" x="1177" y="877"/><rect fill="#F1F1F1" height="10" style="stroke:#181818;stroke-width:0.5;" width="15" x="1277" y="882"/><rect fill="#F1F1F1" height="2" style="stroke:#181818;stroke-width:0.5;" width="4" x="1275" y="884"/><rect fill="#F1F1F1" height="2" style="stroke:#181818;stroke-width:0.5;" width="4" x="1275" y="888"/><text fill="#000000" font-family="sans-serif" font-size="14" lengthAdjust="spacing" textLength="80" x="1192" y="911.5332">UserAccount</text></g><!--entity ResourceEntity--><g id="elem_ResourceEntity"><rect fill="#F1F1F1" height="47.6094" rx="2.5" ry="2.5" style="stroke:#181818;stroke-width:0.5;" width="136" x="1169" y="794"/><rect fill="#F1F1F1" height="10" style="stroke:#181818;stroke-width:0.5;" width="15" x="1285" y="799"/><rect fill="#F1F1F1" height="2" style="stroke:#181818;stroke-width:0.5;" width="4" x="1283" y="801"/><rect fill="#F1F1F1" height="2" style="stroke:#181818;stroke-width:0.5;" width="4" x="1283" y="805"/><text fill="#000000" font-family="sans-serif" font-size="14" lengthAdjust="spacing" textLength="96" x="1184" y="828.5332">ResourceEntity</text></g><!--entity Booking--><g id="elem_Booking"><rect fill="#F1F1F1" height="47.6094" rx="2.5" ry="2.5" style="stroke:#181818;stroke-width:0.5;" width="91" x="1425.5" y="877"/><rect fill="#F1F1F1" height="10" style="stroke:#181818;stroke-width:0.5;" width="15" x="1496.5" y="882"/><rect fill="#F1F1F1" height="2" style="stroke:#181818;stroke-width:0.5;" width="4" x="1494.5" y="884"/><rect fill="#F1F1F1" height="2" style="stroke:#181818;stroke-width:0.5;" width="4" x="1494.5" y="888"/><text fill="#000000" font-family="sans-serif" font-size="14" lengthAdjust="spacing" textLength="51" x="1440.5" y="911.5332">Booking</text></g><!--entity CreditHistory--><g id="elem_CreditHistory"><rect fill="#F1F1F1" height="47.6094" rx="2.5" ry="2.5" style="stroke:#181818;stroke-width:0.5;" width="121" x="1410.5" y="794"/><rect fill="#F1F1F1" height="10" style="stroke:#181818;stroke-width:0.5;" width="15" x="1511.5" y="799"/><rect fill="#F1F1F1" height="2" style="stroke:#181818;stroke-width:0.5;" width="4" x="1509.5" y="801"/><rect fill="#F1F1F1" height="2" style="stroke:#181818;stroke-width:0.5;" width="4" x="1509.5" y="805"/><text fill="#000000" font-family="sans-serif" font-size="14" lengthAdjust="spacing" textLength="81" x="1425.5" y="828.5332">CreditHistory</text></g><!--entity PenaltyPolicy--><g id="elem_PenaltyPolicy"><rect fill="#F1F1F1" height="47.6094" rx="2.5" ry="2.5" style="stroke:#181818;stroke-width:0.5;" width="124" x="1175" y="1036"/><rect fill="#F1F1F1" height="10" style="stroke:#181818;stroke-width:0.5;" width="15" x="1279" y="1041"/><rect fill="#F1F1F1" height="2" style="stroke:#181818;stroke-width:0.5;" width="4" x="1277" y="1043"/><rect fill="#F1F1F1" height="2" style="stroke:#181818;stroke-width:0.5;" width="4" x="1277" y="1047"/><text fill="#000000" font-family="sans-serif" font-size="14" lengthAdjust="spacing" textLength="84" x="1190" y="1070.5332">PenaltyPolicy</text></g><!--entity SimplePenaltyPolicy--><g id="elem_SimplePenaltyPolicy"><rect fill="#F1F1F1" height="47.6094" rx="2.5" ry="2.5" style="stroke:#181818;stroke-width:0.5;" width="166" x="1154" y="1119"/><rect fill="#F1F1F1" height="10" style="stroke:#181818;stroke-width:0.5;" width="15" x="1300" y="1124"/><rect fill="#F1F1F1" height="2" style="stroke:#181818;stroke-width:0.5;" width="4" x="1298" y="1126"/><rect fill="#F1F1F1" height="2" style="stroke:#181818;stroke-width:0.5;" width="4" x="1298" y="1130"/><text fill="#000000" font-family="sans-serif" font-size="14" lengthAdjust="spacing" textLength="126" x="1169" y="1153.5332">SimplePenaltyPolicy</text></g><!--entity CreateBookingRequest--><g id="elem_CreateBookingRequest"><rect fill="#F1F1F1" height="47.6094" rx="2.5" ry="2.5" style="stroke:#181818;stroke-width:0.5;" width="187" x="1143.5" y="1243"/><rect fill="#F1F1F1" height="10" style="stroke:#181818;stroke-width:0.5;" width="15" x="1310.5" y="1248"/><rect fill="#F1F1F1" height="2" style="stroke:#181818;stroke-width:0.5;" width="4" x="1308.5" y="1250"/><rect fill="#F1F1F1" height="2" style="stroke:#181818;stroke-width:0.5;" width="4" x="1308.5" y="1254"/><text fill="#000000" font-family="sans-serif" font-size="14" lengthAdjust="spacing" textLength="147" x="1158.5" y="1277.5332">CreateBookingRequest</text></g><!--entity BookingResponse--><g id="elem_BookingResponse"><rect fill="#F1F1F1" height="47.6094" rx="2.5" ry="2.5" style="stroke:#181818;stroke-width:0.5;" width="155" x="1159.5" y="1326"/><rect fill="#F1F1F1" height="10" style="stroke:#181818;stroke-width:0.5;" width="15" x="1294.5" y="1331"/><rect fill="#F1F1F1" height="2" style="stroke:#181818;stroke-width:0.5;" width="4" x="1292.5" y="1333"/><rect fill="#F1F1F1" height="2" style="stroke:#181818;stroke-width:0.5;" width="4" x="1292.5" y="1337"/><text fill="#000000" font-family="sans-serif" font-size="14" lengthAdjust="spacing" textLength="115" x="1174.5" y="1360.5332">BookingResponse</text></g><!--entity BizException--><g id="elem_BizException"><rect fill="#F1F1F1" height="47.6094" rx="2.5" ry="2.5" style="stroke:#181818;stroke-width:0.5;" width="119" x="1177.5" y="1450"/><rect fill="#F1F1F1" height="10" style="stroke:#181818;stroke-width:0.5;" width="15" x="1276.5" y="1455"/><rect fill="#F1F1F1" height="2" style="stroke:#181818;stroke-width:0.5;" width="4" x="1274.5" y="1457"/><rect fill="#F1F1F1" height="2" style="stroke:#181818;stroke-width:0.5;" width="4" x="1274.5" y="1461"/><text fill="#000000" font-family="sans-serif" font-size="14" lengthAdjust="spacing" textLength="79" x="1192.5" y="1484.5332">BizException</text></g><!--entity GlobalExceptionHandler--><g id="elem_GlobalExceptionHandler"><rect fill="#F1F1F1" height="47.6094" rx="2.5" ry="2.5" style="stroke:#181818;stroke-width:0.5;" width="191" x="1141.5" y="1533"/><rect fill="#F1F1F1" height="10" style="stroke:#181818;stroke-width:0.5;" width="15" x="1312.5" y="1538"/><rect fill="#F1F1F1" height="2" style="stroke:#181818;stroke-width:0.5;" width="4" x="1310.5" y="1540"/><rect fill="#F1F1F1" height="2" style="stroke:#181818;stroke-width:0.5;" width="4" x="1310.5" y="1544"/><text fill="#000000" font-family="sans-serif" font-size="14" lengthAdjust="spacing" textLength="151" x="1156.5" y="1567.5332">GlobalExceptionHandler</text></g><!--entity UserRepo--><g id="elem_UserRepo"><rect fill="#F1F1F1" height="47.6094" rx="2.5" ry="2.5" style="stroke:#181818;stroke-width:0.5;" width="103" x="893" y="559"/><rect fill="#F1F1F1" height="10" style="stroke:#181818;stroke-width:0.5;" width="15" x="976" y="564"/><rect fill="#F1F1F1" height="2" style="stroke:#181818;stroke-width:0.5;" width="4" x="974" y="566"/><rect fill="#F1F1F1" height="2" style="stroke:#181818;stroke-width:0.5;" width="4" x="974" y="570"/><text fill="#000000" font-family="sans-serif" font-size="14" lengthAdjust="spacing" textLength="63" x="908" y="593.5332">UserRepo</text></g><!--entity UserAccountRepository--><g id="elem_UserAccountRepository"><rect fill="#F1F1F1" height="47.6094" rx="2.5" ry="2.5" style="stroke:#181818;stroke-width:0.5;" width="188" x="850.5" y="476"/><rect fill="#F1F1F1" height="10" style="stroke:#181818;stroke-width:0.5;" width="15" x="1018.5" y="481"/><rect fill="#F1F1F1" height="2" style="stroke:#181818;stroke-width:0.5;" width="4" x="1016.5" y="483"/><rect fill="#F1F1F1" height="2" style="stroke:#181818;stroke-width:0.5;" width="4" x="1016.5" y="487"/><text fill="#000000" font-family="sans-serif" font-size="14" lengthAdjust="spacing" textLength="148" x="865.5" y="510.5332">UserAccountRepository</text></g><!--entity ResourceRepo--><g id="elem_ResourceRepo"><rect fill="#F1F1F1" height="47.6094" rx="2.5" ry="2.5" style="stroke:#181818;stroke-width:0.5;" width="135" x="877" y="393"/><rect fill="#F1F1F1" height="10" style="stroke:#181818;stroke-width:0.5;" width="15" x="992" y="398"/><rect fill="#F1F1F1" height="2" style="stroke:#181818;stroke-width:0.5;" width="4" x="990" y="400"/><rect fill="#F1F1F1" height="2" style="stroke:#181818;stroke-width:0.5;" width="4" x="990" y="404"/><text fill="#000000" font-family="sans-serif" font-size="14" lengthAdjust="spacing" textLength="95" x="892" y="427.5332">ResourceRepo</text></g><!--entity BookingRepo--><g id="elem_BookingRepo"><rect fill="#F1F1F1" height="47.6094" rx="2.5" ry="2.5" style="stroke:#181818;stroke-width:0.5;" width="125" x="1174.5" y="559"/><rect fill="#F1F1F1" height="10" style="stroke:#181818;stroke-width:0.5;" width="15" x="1279.5" y="564"/><rect fill="#F1F1F1" height="2" style="stroke:#181818;stroke-width:0.5;" width="4" x="1277.5" y="566"/><rect fill="#F1F1F1" height="2" style="stroke:#181818;stroke-width:0.5;" width="4" x="1277.5" y="570"/><text fill="#000000" font-family="sans-serif" font-size="14" lengthAdjust="spacing" textLength="85" x="1189.5" y="593.5332">BookingRepo</text></g><!--entity CreditHistoryRepository--><g id="elem_CreditHistoryRepository"><rect fill="#F1F1F1" height="47.6094" rx="2.5" ry="2.5" style="stroke:#181818;stroke-width:0.5;" width="189" x="1142.5" y="476"/><rect fill="#F1F1F1" height="10" style="stroke:#181818;stroke-width:0.5;" width="15" x="1311.5" y="481"/><rect fill="#F1F1F1" height="2" style="stroke:#181818;stroke-width:0.5;" width="4" x="1309.5" y="483"/><rect fill="#F1F1F1" height="2" style="stroke:#181818;stroke-width:0.5;" width="4" x="1309.5" y="487"/><text fill="#000000" font-family="sans-serif" font-size="14" lengthAdjust="spacing" textLength="149" x="1157.5" y="510.5332">CreditHistoryRepository</text></g><!--entity DataInitializer--><g id="elem_DataInitializer"><rect fill="#F1F1F1" height="47.6094" rx="2.5" ry="2.5" style="stroke:#181818;stroke-width:0.5;" width="124" x="882.5" y="1463"/><rect fill="#F1F1F1" height="10" style="stroke:#181818;stroke-width:0.5;" width="15" x="986.5" y="1468"/><rect fill="#F1F1F1" height="2" style="stroke:#181818;stroke-width:0.5;" width="4" x="984.5" y="1470"/><rect fill="#F1F1F1" height="2" style="stroke:#181818;stroke-width:0.5;" width="4" x="984.5" y="1474"/><text fill="#000000" font-family="sans-serif" font-size="14" lengthAdjust="spacing" textLength="84" x="897.5" y="1497.5332">DataInitializer</text></g><!--entity Application--><g id="elem_Application"><rect fill="#F1F1F1" height="47.6094" rx="2.5" ry="2.5" style="stroke:#181818;stroke-width:0.5;" width="109" x="890" y="1546"/><rect fill="#F1F1F1" height="10" style="stroke:#181818;stroke-width:0.5;" width="15" x="979" y="1551"/><rect fill="#F1F1F1" height="2" style="stroke:#181818;stroke-width:0.5;" width="4" x="977" y="1553"/><rect fill="#F1F1F1" height="2" style="stroke:#181818;stroke-width:0.5;" width="4" x="977" y="1557"/><text fill="#000000" font-family="sans-serif" font-size="14" lengthAdjust="spacing" textLength="69" x="905" y="1580.5332">Application</text></g><!--entity client--><g id="elem_client"><ellipse cx="95" cy="1019" fill="#F1F1F1" rx="8" ry="8" style="stroke:#181818;stroke-width:0.5;"/><text fill="#000000" font-family="sans-serif" font-size="14" lengthAdjust="spacing" textLength="33" x="78.5" y="1050.5332">client</text></g><g id="elem_GMN48"><path d="M51.5,1063 L51.5,1089.3516 A0,0 0 0 0 51.5,1089.3516 L138.5,1089.3516 A0,0 0 0 0 138.5,1089.3516 L138.5,1073 L128.5,1063 L99,1063 L95,1028.21 L91,1063 L51.5,1063 A0,0 0 0 0 51.5,1063 " fill="#FEFFDD" style="stroke:#181818;stroke-width:0.5;"/><path d="M128.5,1063 L128.5,1073 L138.5,1073 L128.5,1063 " fill="#FEFFDD" style="stroke:#181818;stroke-width:0.5;"/><text fill="#000000" font-family="sans-serif" font-size="13" lengthAdjust="spacing" textLength="66" x="57.5" y="1081.4951">Vite &#20195;&#29702;&#65306;</text></g><!--link client to controller--><g id="link_client_controller"><path d="M104.07,1019 C130.25,1019 215.715,1019 295.2,1019 C315.0712,1019 334.5687,1019 352.6727,1019 C354.9357,1019 357.177,1019 359.3944,1019 C359.9488,1019 354.5017,1019 355.053,1019 " fill="none" id="client-to-controller" style="stroke:#181818;stroke-width:1.0;stroke-dasharray:7.0,7.0;"/><polygon fill="#181818" points="361.053,1019,352.053,1015,356.053,1019,352.053,1023,361.053,1019" style="stroke:#181818;stroke-width:1.0;"/><text fill="#000000" font-family="sans-serif" font-size="13" lengthAdjust="spacing" textLength="66" x="222.5" y="999.4951">HTTP /api/*</text><text fill="#000000" font-family="sans-serif" font-size="13" lengthAdjust="spacing" textLength="115" x="198" y="1015.8467">(Vite proxy -&gt; 8080)</text></g><!--link controller to service--><g id="link_controller_service"><path d="M541.4306,1019 C543.1282,1019 544.8338,1019 546.5457,1019 C553.3936,1019 560.3431,1019 567.2925,1019 C574.2419,1019 581.1911,1019 588.0381,1019 C588.466,1019 588.8936,1019 589.3207,1019 C589.5342,1019 583.7477,1019 583.961,1019 " fill="none" id="controller-to-service" style="stroke:#181818;stroke-width:1.0;stroke-dasharray:7.0,7.0;"/><polygon fill="#181818" points="589.961,1019,580.961,1015,584.961,1019,580.961,1023,589.961,1019" style="stroke:#181818;stroke-width:1.0;"/></g><!--link service to repository--><g id="link_service_repository"><path d="M776.4048,1010.2476 C776.5796,1010.1695 776.754,1010.0909 776.9282,1010.0118 C777.2765,1009.8535 777.6237,1009.6931 777.9698,1009.5306 C783.5067,1006.9306 788.7475,1003.7875 793.5,1000 C860.425,946.66 897.865,858.135 918.6038,782.4638 C928.9731,744.6281 935.1672,710.0059 938.7839,684.602 C940.5923,671.9001 941.7563,661.5027 942.4757,654.1605 C942.5657,653.2427 942.6486,652.3727 942.7251,651.5518 C942.7633,651.1414 942.2578,656.7188 942.2928,656.3331 " fill="none" id="service-to-repository" style="stroke:#181818;stroke-width:1.0;stroke-dasharray:7.0,7.0;"/><polygon fill="#181818" points="942.8348,650.3577,938.0381,658.9595,942.3831,655.3372,946.0054,659.6822,942.8348,650.3577" style="stroke:#181818;stroke-width:1.0;"/></g><!--link service to domain--><g id="link_service_domain"><path d="M694.2945,1027.5224 C694.5083,1027.7021 694.7252,1027.8845 694.9451,1028.0696 C695.385,1028.4399 695.8371,1028.8211 696.3013,1029.2131 C703.7286,1035.4846 714.2466,1044.5198 727.097,1055.9683 C752.7978,1078.8653 787.8281,1111.4156 826.1213,1150.8162 C902.7075,1229.6175 992.345,1335.82 1046.5,1447 C1076.31,1508.2 1029.25,1548.97 1077.5,1597 C1080.6338,1600.1194 1083.9818,1602.9761 1087.506,1605.5906 C1089.2681,1606.8978 1086.0302,1604.8953 1087.8755,1606.084 " fill="none" id="service-to-domain" style="stroke:#181818;stroke-width:1.0;stroke-dasharray:7.0,7.0;"/><polygon fill="#181818" points="1092.9196,1609.3332,1087.5197,1601.0967,1088.7162,1606.6255,1083.1874,1607.8221,1092.9196,1609.3332" style="stroke:#181818;stroke-width:1.0;"/></g><!--link repository to entity--><g id="link_repository_entity"><path d="M946.2982,650.5178 C946.3169,650.6945 946.336,650.8737 946.3555,651.0555 C946.4335,651.7826 946.5176,652.5501 946.6082,653.3567 C947.3327,659.81 948.4691,668.7707 950.1781,679.6077 C953.5963,701.2816 959.305,730.4606 968.59,762.0963 C987.16,825.3675 1020.035,898.465 1077.5,941 C1091.535,951.3875 1108.2613,957.8131 1125.5042,961.5978 C1129.815,962.544 1134.158,963.3251 1138.4994,963.9618 C1139.5847,964.121 1140.6699,964.2711 1141.7545,964.4126 C1142.2968,964.4833 1142.839,964.5518 1143.3809,964.6182 C1143.6518,964.6514 1137.9645,963.977 1138.2354,964.0091 " fill="none" id="repository-to-entity" style="stroke:#181818;stroke-width:1.0;stroke-dasharray:7.0,7.0;"/><polygon fill="#181818" points="1144.1936,964.7163,1135.7277,959.6835,1139.2284,964.127,1134.7849,967.6277,1144.1936,964.7163" style="stroke:#181818;stroke-width:1.0;"/></g><!--link config to domain--><g id="link_config_domain"><path d="M1031.9813,1629 C1034.0444,1629 1036.1264,1629 1038.2254,1629 C1055.0172,1629 1072.8913,1629 1090.765,1629 C1091.3236,1629 1091.8821,1629 1092.4406,1629 C1092.7199,1629 1086.9991,1629 1087.2784,1629 " fill="none" id="config-to-domain" style="stroke:#181818;stroke-width:1.0;stroke-dasharray:7.0,7.0;"/><polygon fill="#181818" points="1093.2784,1629,1084.2784,1625,1088.2784,1629,1084.2784,1633,1093.2784,1629" style="stroke:#181818;stroke-width:1.0;"/></g><!--SRC=[RPF1RXCn48RlVWghboH8R7gieYfIMmgfLAGe2LmW1tVNsGprUent0achlNBcp9N7WCT1uiWhO2TUrnlrij9-dld_cV5OoHLnGcwXN1ClmCgS03Mhxq4ROKN5ZSZlHIddj5EI-sEXIoKP2voVv0ga9jwVIP7JS250VGLT3Dy3oS49VsISVxZ54lHhj5NsgTukFPd96ZSsbxTGKuINYCwsx0I-tGLQ9-X6hp3-NXGLw5OlqWs1yYdy_5mOwFU6xZlCigmt68-Nh4dghwNz8YtlpurrDjpPKQYx3SbHaqMbN9J7tdD3wwj8bm4QwB8cqV0kaCjKO7v08JkqcS0qlS1AW0xPBNHZ1ze5w2JUEPEBFCUDfcNBsi5SxsCZ3cxn_yhA0cZYRWDjY6ewNWOLv8dNL6gXQ3VTuoWpXyee-SnPLwnm6_UOM0kIeQ2P_BoHDHtNwRemg6lvd9ZSvjBufNsIl8I7wvP6gJSAxuIAV29q4U-kEHgtbGPhyBDeBypFTkReaXsFUXPZmraxyYGyjX59P-1TYQQxUYieso9U2H8t6WY4WeTaxumRj6YRRVnsXqUPPUDqUqTyibXC-VujlFYe-_wDScDnk-Cln_pizEnqm99mdntsbhNxwzdJT3huiACicPsdXoLbeP4aZcbqxdT8X1N75J-Kx1hOL_Ndry-_tx_z-_t3WVtZxVaIrqHcD1mgp8LQOqqZNpEJkk1UZFq7]--></g></svg>