<?xml version="1.0" encoding="us-ascii" standalone="no"?><svg xmlns="http://www.w3.org/2000/svg" xmlns:xlink="http://www.w3.org/1999/xlink" contentStyleType="text/css" height="868px" preserveAspectRatio="none" style="width:715px;height:868px;background:#FFFFFF;" version="1.1" viewBox="0 0 715 868" width="715px" zoomAndPan="magnify"><defs/><g><!--cluster Sys--><g id="cluster_Sys"><rect fill="none" height="741" rx="2.5" ry="2.5" style="stroke:#181818;stroke-width:1.0;" width="596" x="113" y="7"/><text fill="#000000" font-family="sans-serif" font-size="14" font-weight="bold" lengthAdjust="spacing" textLength="115.5" x="353.25" y="23.5332">&#26657;&#22253;&#36164;&#28304;&#39044;&#32422;&#31995;&#32479;</text></g><g id="elem_UC_Login"><ellipse cx="249.2843" cy="58.9517" fill="#F8F9FB" rx="31.2843" ry="15.4517" style="stroke:#7F8C8D;stroke-width:0.5;"/><text fill="#000000" font-family="sans-serif" font-size="14" lengthAdjust="spacing" textLength="28" x="235.2843" y="62.6802">&#30331;&#24405;</text></g><g id="elem_UC_Browse"><ellipse cx="249.6531" cy="125.9306" fill="#F8F9FB" rx="70.1531" ry="16.4306" style="stroke:#7F8C8D;stroke-width:0.5;"/><text fill="#000000" font-family="sans-serif" font-size="14" lengthAdjust="spacing" textLength="88" x="202.6531" y="130.4472">&#27983;&#35272;/&#31579;&#36873;&#36164;&#28304;</text></g><g id="elem_UC_Create"><ellipse cx="249.3032" cy="193.0087" fill="#F8F9FB" rx="51.3032" ry="15.5087" style="stroke:#7F8C8D;stroke-width:0.5;"/><text fill="#000000" font-family="sans-serif" font-size="14" lengthAdjust="spacing" textLength="56" x="218.3032" y="197.5253">&#21019;&#24314;&#39044;&#32422;</text></g><g id="elem_UC_MyBookings"><ellipse cx="249.2688" cy="260.1538" fill="#F8F9FB" rx="68.7688" ry="16.1538" style="stroke:#7F8C8D;stroke-width:0.5;"/><text fill="#000000" font-family="sans-serif" font-size="14" lengthAdjust="spacing" textLength="84" x="204.2688" y="264.6704">&#26597;&#30475;&#25105;&#30340;&#39044;&#32422;</text></g><g id="elem_UC_Cancel"><ellipse cx="249.3032" cy="327.0087" fill="#F8F9FB" rx="51.3032" ry="15.5087" style="stroke:#7F8C8D;stroke-width:0.5;"/><text fill="#000000" font-family="sans-serif" font-size="14" lengthAdjust="spacing" textLength="56" x="218.3032" y="331.5253">&#21462;&#28040;&#39044;&#32422;</text></g><g id="elem_UC_MyInfo"><ellipse cx="249.3797" cy="405.9034" fill="#F8F9FB" rx="120.3797" ry="27.9034" style="stroke:#7F8C8D;stroke-width:0.5;"/><text fill="#000000" font-family="sans-serif" font-size="14" lengthAdjust="spacing" textLength="116" x="191.3797" y="400.8272">&#26597;&#30475;/&#20462;&#25913;&#25105;&#30340;&#20449;&#24687;</text><text fill="#000000" font-family="sans-serif" font-size="14" lengthAdjust="spacing" textLength="154" x="172.3797" y="418.4366">(&#23494;&#30721;&#26174;&#31034;/&#38544;&#34255;&#12289;&#20449;&#29992;&#20540;)</text></g><g id="elem_UC_CreditHistory"><ellipse cx="249.3478" cy="488.8696" fill="#F8F9FB" rx="84.8478" ry="19.3696" style="stroke:#7F8C8D;stroke-width:0.5;"/><text fill="#000000" font-family="sans-serif" font-size="14" lengthAdjust="spacing" textLength="126" x="186.3478" y="492.5981">&#26597;&#30475;&#20449;&#29992;&#20540;&#21464;&#21160;&#35760;&#24405;</text></g><g id="elem_UC_Complete"><ellipse cx="249.566" cy="564.9132" fill="#F8F9FB" rx="92.566" ry="20.9132" style="stroke:#7F8C8D;stroke-width:0.5;"/><text fill="#000000" font-family="sans-serif" font-size="14" lengthAdjust="spacing" textLength="144" x="177.566" y="568.6417">&#23436;&#25104;&#39044;&#32422;&#65288;&#24402;&#36824;/&#21040;&#26399;&#65289;</text></g><g id="elem_UC_ResAdmin"><ellipse cx="249.3297" cy="642.0659" fill="#F8F9FB" rx="90.8297" ry="20.5659" style="stroke:#7F8C8D;stroke-width:0.5;"/><text fill="#000000" font-family="sans-serif" font-size="14" lengthAdjust="spacing" textLength="140" x="179.3297" y="645.7945">&#36164;&#28304;&#31649;&#29702;&#65288;&#22686;&#21024;&#25913;&#26597;&#65289;</text></g><g id="elem_UC_UserCreditAdmin"><ellipse cx="249.7427" cy="715.1485" fill="#F8F9FB" rx="73.7427" ry="17.1485" style="stroke:#7F8C8D;stroke-width:0.5;"/><text fill="#000000" font-family="sans-serif" font-size="14" lengthAdjust="spacing" textLength="98" x="197.7427" y="719.6651">&#29992;&#25143;&#19982;&#20449;&#29992;&#31649;&#29702;</text></g><g id="elem_UC_Penalty"><ellipse cx="590.1901" cy="670.038" fill="#F8F9FB" rx="103.1901" ry="23.038" style="stroke:#7F8C8D;stroke-width:0.5;"/><text fill="#000000" font-family="sans-serif" font-size="14" lengthAdjust="spacing" textLength="168" x="506.1901" y="673.7665">&#24809;&#32602;&#31574;&#30053;&#25191;&#34892;&#65288;&#36229;&#26399;&#25187;&#20998;&#65289;</text></g><!--entity User--><g id="elem_User"><ellipse cx="36" cy="221" fill="#F1F1F1" rx="8" ry="8" style="stroke:#181818;stroke-width:0.5;"/><path d="M36,229 L36,256 M23,237 L49,237 M36,256 L23,271 M36,256 L49,271 " fill="none" style="stroke:#181818;stroke-width:0.5;"/><text fill="#000000" font-family="sans-serif" font-size="14" lengthAdjust="spacing" textLength="60" x="6" y="287.0332">&#23398;&#29983;/&#32769;&#24072;</text><text fill="#000000" font-family="sans-serif" font-size="14" lengthAdjust="spacing" textLength="39" x="6" y="304.6426">(User)</text></g><!--entity Admin--><g id="elem_Admin"><ellipse cx="36" cy="603" fill="#F1F1F1" rx="8" ry="8" style="stroke:#181818;stroke-width:0.5;"/><path d="M36,611 L36,638 M23,619 L49,619 M36,638 L23,653 M36,638 L49,653 " fill="none" style="stroke:#181818;stroke-width:0.5;"/><text fill="#000000" font-family="sans-serif" font-size="14" lengthAdjust="spacing" textLength="42" x="11.5" y="669.0332">&#31649;&#29702;&#21592;</text><text fill="#000000" font-family="sans-serif" font-size="14" lengthAdjust="spacing" textLength="49" x="11.5" y="686.6426">(Admin)</text></g><!--entity Timer--><g id="elem_Timer"><ellipse cx="249.5" cy="776" fill="#F1F1F1" rx="8" ry="8" style="stroke:#181818;stroke-width:0.5;"/><path d="M249.5,784 L249.5,811 M236.5,792 L262.5,792 M249.5,811 L236.5,826 M249.5,811 L262.5,826 " fill="none" style="stroke:#181818;stroke-width:0.5;"/><text fill="#000000" font-family="sans-serif" font-size="14" lengthAdjust="spacing" textLength="84" x="207.5" y="842.0332">&#31995;&#32479;&#23450;&#26102;&#20219;&#21153;</text><text fill="#000000" font-family="sans-serif" font-size="14" lengthAdjust="spacing" textLength="56" x="207.5" y="859.6426">(System)</text></g><!--link User to UC_Login--><g id="link_User_UC_Login"><path d="M44.01,212.43 C52.14,174.34 69.33,122.42 105,92 C136.71,64.96 180.2118,59.1272 212.0018,58.3472 " fill="none" id="User-to-UC_Login" style="stroke:#181818;stroke-width:1.0;"/><polygon fill="#181818" points="218,58.2,208.9046,54.422,213.0015,58.3226,209.1008,62.4196,218,58.2" style="stroke:#181818;stroke-width:1.0;"/></g><!--link User to UC_Browse--><g id="link_User_UC_Browse"><path d="M59.57,212.3 C70.75,193.4 85.98,173.1 105,160 C127.77,144.32 150.9608,136.8497 176.9908,132.2697 " fill="none" id="User-to-UC_Browse" style="stroke:#181818;stroke-width:1.0;"/><polygon fill="#181818" points="182.9,131.23,173.343,128.8501,177.9756,132.0964,174.7293,136.7291,182.9,131.23" style="stroke:#181818;stroke-width:1.0;"/></g><!--link User to UC_Create--><g id="link_User_UC_Create"><path d="M66.12,243.53 C77.91,237.37 91.83,230.73 105,226 C137.36,214.38 169.4357,206.9814 198.1857,201.5114 " fill="none" id="User-to-UC_Create" style="stroke:#181818;stroke-width:1.0;"/><polygon fill="#181818" points="204.08,200.39,194.491,198.1427,199.1681,201.3245,195.9862,206.0017,204.08,200.39" style="stroke:#181818;stroke-width:1.0;"/></g><!--link User to UC_MyBookings--><g id="link_User_UC_MyBookings"><path d="M66.41,260 C95.69,260 135.7,260 174.14,260 " fill="none" id="User-to-UC_MyBookings" style="stroke:#181818;stroke-width:1.0;"/><polygon fill="#181818" points="180.14,260,171.14,256,175.14,260,171.14,264,180.14,260" style="stroke:#181818;stroke-width:1.0;"/></g><!--link User to UC_Cancel--><g id="link_User_UC_Cancel"><path d="M66.18,275.9 C77.99,281.87 91.9,288.33 105,293 C137.68,304.64 170.0857,312.3172 198.8857,318.0572 " fill="none" id="User-to-UC_Cancel" style="stroke:#181818;stroke-width:1.0;"/><polygon fill="#181818" points="204.77,319.23,196.7254,313.548,199.8664,318.2527,195.1618,321.3937,204.77,319.23" style="stroke:#181818;stroke-width:1.0;"/></g><!--link User to UC_MyInfo--><g id="link_User_UC_MyInfo"><path d="M60.54,307.75 C71.76,326.32 86.75,346.36 105,360 C120.93,371.9 134.3728,378.8295 153.3828,385.4395 " fill="none" id="User-to-UC_MyInfo" style="stroke:#181818;stroke-width:1.0;"/><polygon fill="#181818" points="159.05,387.41,151.8629,380.6761,154.3273,385.7679,149.2355,388.2323,159.05,387.41" style="stroke:#181818;stroke-width:1.0;"/></g><!--link User to UC_CreditHistory--><g id="link_User_UC_CreditHistory"><path d="M41.52,307.64 C48.18,351.03 64.59,413.82 105,451 C122.64,467.23 140.5608,475.3004 163.6708,480.7604 " fill="none" id="User-to-UC_CreditHistory" style="stroke:#181818;stroke-width:1.0;"/><polygon fill="#181818" points="169.51,482.14,161.6709,476.1778,164.644,480.9903,159.8314,483.9634,169.51,482.14" style="stroke:#181818;stroke-width:1.0;"/></g><!--link Admin to UC_ResAdmin--><g id="link_Admin_UC_ResAdmin"><path d="M60.85,642 C84.62,642 116.61,642 152.21,642 " fill="none" id="Admin-to-UC_ResAdmin" style="stroke:#181818;stroke-width:1.0;"/><polygon fill="#181818" points="158.21,642,149.21,638,153.21,642,149.21,646,158.21,642" style="stroke:#181818;stroke-width:1.0;"/></g><!--link Admin to UC_UserCreditAdmin--><g id="link_Admin_UC_UserCreditAdmin"><path d="M60.77,657.38 C73.48,665.05 89.64,673.97 105,680 C132.45,690.79 158.3236,697.6809 184.9736,703.4009 " fill="none" id="Admin-to-UC_UserCreditAdmin" style="stroke:#181818;stroke-width:1.0;"/><polygon fill="#181818" points="190.84,704.66,182.8798,698.8604,185.9513,703.6107,181.201,706.6822,190.84,704.66" style="stroke:#181818;stroke-width:1.0;"/></g><!--link Admin to UC_Complete--><g id="link_Admin_UC_Complete"><path d="M60.52,626.98 C73.3,619.3 89.6,610.29 105,604 C129.5,594 151.5766,587.2446 176.2066,580.9546 " fill="none" id="Admin-to-UC_Complete" style="stroke:#181818;stroke-width:1.0;"/><polygon fill="#181818" points="182.02,579.47,172.3101,577.8213,177.1755,580.7072,174.2896,585.5726,182.02,579.47" style="stroke:#181818;stroke-width:1.0;"/></g><!--link Timer to UC_Penalty--><g id="link_Timer_UC_Penalty"><path d="M291.67,797.37 C354.75,770.35 469.4648,721.2027 536.0848,692.6627 " fill="none" id="Timer-to-UC_Penalty" style="stroke:#181818;stroke-width:1.0;"/><polygon fill="#181818" points="541.6,690.3,531.752,690.1673,537.004,692.2689,534.9023,697.5209,541.6,690.3" style="stroke:#181818;stroke-width:1.0;"/></g><!--reverse link UC_Complete to UC_Penalty--><g id="link_UC_Complete_UC_Penalty"><path d="M310.6207,583.6475 C371.9107,602.6575 465.55,631.71 529.04,651.4 " fill="none" id="UC_Complete-backto-UC_Penalty" style="stroke:#181818;stroke-width:1.0;stroke-dasharray:7.0,7.0;"/><polygon fill="#181818" points="304.89,581.87,312.301,588.3566,309.6656,583.3512,314.671,580.7157,304.89,581.87" style="stroke:#181818;stroke-width:1.0;"/><text fill="#000000" font-family="sans-serif" font-size="13" lengthAdjust="spacing" textLength="55" x="401" y="611.4951">&#171;include&#187;</text></g><!--SRC=[PPDDRn916CVl-oacUB67bgDe28bmqKGJO_LcOjRT0JTTTidk4aEC2KGaIsqADRH5Q0Igj7Y0DZ75oejy69cPvTIlu2p3qbcupJxFx_a_hwl2k0Ki7HXAugq5PCM0agNecc3kA5fADCGaI8dIZfY0srP6XS1rYrf2XHoGDg4acX2y5m28KZXXw6bDZkcgRe0xyL3yVloDwz4D6HeBwxruI0h9mWT1b2pw7K3TCr9f19ri3btRhxIxBqreR0I0Q0BtvL6aroBb0ZgeKkAXd5GqXioVI-RNa0mRg5V3n_tfS8XsMnJUpfWMJ3BwXPAaYiAo4H30pHQgTvshF1wKPwTvCZXZ8dESXiuRyveCaAz3D3vajSLUFz4JD3VdnbSbvzmEacvzbYqoJO-D6lex4_8mikjeE60vFIfcGD7oKRZH9YUViNr0Qda_-pGJrNMwXuJfKoqTuRwzeYfg4bJNLOFJIGzN_Z3nwQI5SnTqNkYYG9evNFrBVWo2irhPEIxzo-QecrGwA3lQkCt_M8lhwwfB4fMgQBVZz2wvaT46PSLwf9XqNnbVtRqzR2ysS3EoqVYBCwa6aNs9Jnete-8oNa-cLEWV4HiqkmytzFGRifjkNuqs5_aScknM-7LMEjZ-FRtUPpKp2I_0FJvMxbeS_lYJZ6kaUqGEsxXuxhJsQ5wd_udMYelVaLtWyZw3cgXQ6NhkWgi8DZSZjxV3MnONmfiMvy2RkAtxIBPYFpdVpueUDtrXtfVdMyx7PrqTWi-vN8Om_wyyizUnm24WlBN5-S0340uhcgIcPHY92Fy1]--></g></svg>