<?xml version="1.0" encoding="us-ascii" standalone="no"?><svg xmlns="http://www.w3.org/2000/svg" xmlns:xlink="http://www.w3.org/1999/xlink" contentStyleType="text/css" height="710px" preserveAspectRatio="none" style="width:890px;height:710px;background:#FFFFFF;" version="1.1" viewBox="0 0 890 710" width="890px" zoomAndPan="magnify"><defs/><g><text fill="#000000" font-family="sans-serif" font-size="14" font-weight="bold" lengthAdjust="spacing" textLength="355.9375" x="263.2813" y="29.5332">&#29992;&#25143;&#30331;&#24405;&#27969;&#31243;&#39034;&#24207;&#22270; (User Login Sequence Diagram)</text><rect fill="none" height="216.2969" style="stroke:#000000;stroke-width:1.5;" width="626.5" x="10" y="395.0313"/><line style="stroke:#181818;stroke-width:0.5;stroke-dasharray:5.0,5.0;" x1="37" x2="37" y1="121.2188" y2="628.3281"/><line style="stroke:#181818;stroke-width:0.5;stroke-dasharray:5.0,5.0;" x1="212.5" x2="212.5" y1="121.2188" y2="628.3281"/><line style="stroke:#181818;stroke-width:0.5;stroke-dasharray:5.0,5.0;" x1="380" x2="380" y1="121.2188" y2="628.3281"/><line style="stroke:#181818;stroke-width:0.5;stroke-dasharray:5.0,5.0;" x1="581.5" x2="581.5" y1="121.2188" y2="628.3281"/><line style="stroke:#181818;stroke-width:0.5;stroke-dasharray:5.0,5.0;" x1="797.5" x2="797.5" y1="121.2188" y2="628.3281"/><text fill="#000000" font-family="sans-serif" font-size="14" lengthAdjust="spacing" textLength="29" x="20" y="118.1426">User</text><ellipse cx="37.5" cy="52.1094" fill="#E2E2F0" rx="8" ry="8" style="stroke:#181818;stroke-width:0.5;"/><path d="M37.5,60.1094 L37.5,87.1094 M24.5,68.1094 L50.5,68.1094 M37.5,87.1094 L24.5,102.1094 M37.5,87.1094 L50.5,102.1094 " fill="none" style="stroke:#181818;stroke-width:0.5;"/><text fill="#000000" font-family="sans-serif" font-size="14" lengthAdjust="spacing" textLength="29" x="20" y="641.8613">User</text><ellipse cx="37.5" cy="653.4375" fill="#E2E2F0" rx="8" ry="8" style="stroke:#181818;stroke-width:0.5;"/><path d="M37.5,661.4375 L37.5,688.4375 M24.5,669.4375 L50.5,669.4375 M37.5,688.4375 L24.5,703.4375 M37.5,688.4375 L50.5,703.4375 " fill="none" style="stroke:#181818;stroke-width:0.5;"/><rect fill="#E2E2F0" height="49.2188" rx="2.5" ry="2.5" style="stroke:#181818;stroke-width:0.5;" width="112" x="156.5" y="71"/><text fill="#000000" font-family="sans-serif" font-size="14" lengthAdjust="spacing" textLength="70" x="177.5" y="92.5332">&#21069;&#31471;&#30331;&#24405;&#39029;</text><text fill="#000000" font-family="sans-serif" font-size="14" lengthAdjust="spacing" textLength="98" x="163.5" y="110.1426">(LoginForm.jsx)</text><rect fill="#E2E2F0" height="49.2188" rx="2.5" ry="2.5" style="stroke:#181818;stroke-width:0.5;" width="112" x="156.5" y="627.3281"/><text fill="#000000" font-family="sans-serif" font-size="14" lengthAdjust="spacing" textLength="70" x="177.5" y="648.8613">&#21069;&#31471;&#30331;&#24405;&#39029;</text><text fill="#000000" font-family="sans-serif" font-size="14" lengthAdjust="spacing" textLength="98" x="163.5" y="666.4707">(LoginForm.jsx)</text><rect fill="#E2E2F0" height="31.6094" rx="2.5" ry="2.5" style="stroke:#181818;stroke-width:0.5;" width="105" x="328" y="88.6094"/><text fill="#000000" font-family="sans-serif" font-size="14" lengthAdjust="spacing" textLength="91" x="335" y="110.1426">AuthController</text><rect fill="#E2E2F0" height="31.6094" rx="2.5" ry="2.5" style="stroke:#181818;stroke-width:0.5;" width="105" x="328" y="627.3281"/><text fill="#000000" font-family="sans-serif" font-size="14" lengthAdjust="spacing" textLength="91" x="335" y="648.8613">AuthController</text><rect fill="#E2E2F0" height="31.6094" rx="2.5" ry="2.5" style="stroke:#181818;stroke-width:0.5;" width="90" x="536.5" y="88.6094"/><text fill="#000000" font-family="sans-serif" font-size="14" lengthAdjust="spacing" textLength="76" x="543.5" y="110.1426">AuthService</text><rect fill="#E2E2F0" height="31.6094" rx="2.5" ry="2.5" style="stroke:#181818;stroke-width:0.5;" width="90" x="536.5" y="627.3281"/><text fill="#000000" font-family="sans-serif" font-size="14" lengthAdjust="spacing" textLength="76" x="543.5" y="648.8613">AuthService</text><rect fill="#E2E2F0" height="31.6094" rx="2.5" ry="2.5" style="stroke:#181818;stroke-width:0.5;" width="162" x="716.5" y="88.6094"/><text fill="#000000" font-family="sans-serif" font-size="14" lengthAdjust="spacing" textLength="148" x="723.5" y="110.1426">UserAccountRepository</text><rect fill="#E2E2F0" height="31.6094" rx="2.5" ry="2.5" style="stroke:#181818;stroke-width:0.5;" width="162" x="716.5" y="627.3281"/><text fill="#000000" font-family="sans-serif" font-size="14" lengthAdjust="spacing" textLength="148" x="723.5" y="648.8613">UserAccountRepository</text><rect fill="#EEEEEE" height="3" style="stroke:#EEEEEE;stroke-width:1.0;" width="883.5" x="0" y="152.3945"/><line style="stroke:#000000;stroke-width:1.0;" x1="0" x2="883.5" y1="152.3945" y2="152.3945"/><line style="stroke:#000000;stroke-width:1.0;" x1="0" x2="883.5" y1="155.3945" y2="155.3945"/><rect fill="#EEEEEE" height="24.3516" style="stroke:#000000;stroke-width:2.0;" width="125.25" x="379.125" y="141.2188"/><text fill="#000000" font-family="sans-serif" font-size="13" font-weight="bold" lengthAdjust="spacing" textLength="107.25" x="385.125" y="158.7139">&#29992;&#25143;&#36755;&#20837;&#30331;&#24405;&#20449;&#24687;</text><polygon fill="#181818" points="200.5,193.9219,210.5,197.9219,200.5,201.9219,204.5,197.9219" style="stroke:#181818;stroke-width:1.0;"/><line style="stroke:#181818;stroke-width:1.0;" x1="37.5" x2="206.5" y1="197.9219" y2="197.9219"/><text fill="#000000" font-family="sans-serif" font-size="13" lengthAdjust="spacing" textLength="117" x="44.5" y="193.0654">&#36755;&#20837;&#26657;&#22253;&#21345;&#21495;&#21644;&#23494;&#30721;</text><polygon fill="#181818" points="368.5,240.625,378.5,244.625,368.5,248.625,372.5,244.625" style="stroke:#181818;stroke-width:1.0;"/><line style="stroke:#181818;stroke-width:1.0;" x1="212.5" x2="374.5" y1="244.625" y2="244.625"/><text fill="#000000" font-family="sans-serif" font-size="13" lengthAdjust="spacing" textLength="120" x="219.5" y="223.417">POST /api/auth/login</text><text fill="#000000" font-family="sans-serif" font-size="13" lengthAdjust="spacing" textLength="144" x="219.5" y="239.7686">{campusCard, password}</text><rect fill="#EEEEEE" height="3" style="stroke:#EEEEEE;stroke-width:1.0;" width="883.5" x="0" y="273.8008"/><line style="stroke:#000000;stroke-width:1.0;" x1="0" x2="883.5" y1="273.8008" y2="273.8008"/><line style="stroke:#000000;stroke-width:1.0;" x1="0" x2="883.5" y1="276.8008" y2="276.8008"/><rect fill="#EEEEEE" height="24.3516" style="stroke:#000000;stroke-width:2.0;" width="98.4375" x="392.5313" y="262.625"/><text fill="#000000" font-family="sans-serif" font-size="13" font-weight="bold" lengthAdjust="spacing" textLength="80.4375" x="398.5313" y="280.1201">&#21518;&#31471;&#35748;&#35777;&#27969;&#31243;</text><polygon fill="#181818" points="569.5,315.3281,579.5,319.3281,569.5,323.3281,573.5,319.3281" style="stroke:#181818;stroke-width:1.0;"/><line style="stroke:#181818;stroke-width:1.0;" x1="380.5" x2="575.5" y1="319.3281" y2="319.3281"/><text fill="#000000" font-family="sans-serif" font-size="13" lengthAdjust="spacing" textLength="171" x="387.5" y="314.4717">login(campusCard, password)</text><polygon fill="#181818" points="785.5,345.6797,795.5,349.6797,785.5,353.6797,789.5,349.6797" style="stroke:#181818;stroke-width:1.0;"/><line style="stroke:#181818;stroke-width:1.0;" x1="581.5" x2="791.5" y1="349.6797" y2="349.6797"/><text fill="#000000" font-family="sans-serif" font-size="13" lengthAdjust="spacing" textLength="192" x="588.5" y="344.8232">findByCampusCard(campusCard)</text><polygon fill="#181818" points="592.5,376.0313,582.5,380.0313,592.5,384.0313,588.5,380.0313" style="stroke:#181818;stroke-width:1.0;"/><line style="stroke:#181818;stroke-width:1.0;stroke-dasharray:2.0,2.0;" x1="586.5" x2="796.5" y1="380.0313" y2="380.0313"/><text fill="#000000" font-family="sans-serif" font-size="13" lengthAdjust="spacing" textLength="114" x="598.5" y="375.1748">UserAccount or null</text><path d="M10,395.0313 L71,395.0313 L71,403.3828 L61,413.3828 L10,413.3828 L10,395.0313 " fill="#EEEEEE" style="stroke:#000000;stroke-width:1.5;"/><rect fill="none" height="216.2969" style="stroke:#000000;stroke-width:1.5;" width="626.5" x="10" y="395.0313"/><text fill="#000000" font-family="sans-serif" font-size="13" font-weight="bold" lengthAdjust="spacing" textLength="16" x="25" y="409.5264">alt</text><text fill="#000000" font-family="sans-serif" font-size="11" font-weight="bold" lengthAdjust="spacing" textLength="110.0938" x="86" y="408.4502">[&#29992;&#25143;&#23384;&#22312;&#19988;&#23494;&#30721;&#27491;&#30830;]</text><polygon fill="#181818" points="391.5,431.7344,381.5,435.7344,391.5,439.7344,387.5,435.7344" style="stroke:#181818;stroke-width:1.0;"/><line style="stroke:#181818;stroke-width:1.0;stroke-dasharray:2.0,2.0;" x1="385.5" x2="580.5" y1="435.7344" y2="435.7344"/><text fill="#000000" font-family="sans-serif" font-size="13" lengthAdjust="spacing" textLength="165" x="397.5" y="430.8779">&#36820;&#22238;&#29992;&#25143;&#20449;&#24687; (UserAccount)</text><polygon fill="#181818" points="223.5,462.0859,213.5,466.0859,223.5,470.0859,219.5,466.0859" style="stroke:#181818;stroke-width:1.0;"/><line style="stroke:#181818;stroke-width:1.0;stroke-dasharray:2.0,2.0;" x1="217.5" x2="379.5" y1="466.0859" y2="466.0859"/><text fill="#000000" font-family="sans-serif" font-size="13" lengthAdjust="spacing" textLength="130" x="229.5" y="461.2295">HTTP 200 OK + JSON</text><polygon fill="#181818" points="48.5,492.4375,38.5,496.4375,48.5,500.4375,44.5,496.4375" style="stroke:#181818;stroke-width:1.0;"/><line style="stroke:#181818;stroke-width:1.0;stroke-dasharray:2.0,2.0;" x1="42.5" x2="211.5" y1="496.4375" y2="496.4375"/><text fill="#000000" font-family="sans-serif" font-size="13" lengthAdjust="spacing" textLength="151" x="54.5" y="491.5811">&#26174;&#31034;&#8220;&#30331;&#24405;&#25104;&#21151;&#8221;&#65292;&#36339;&#36716;&#20027;&#39029;</text><line style="stroke:#000000;stroke-width:1.0;stroke-dasharray:2.0,2.0;" x1="10" x2="636.5" y1="505.4375" y2="505.4375"/><text fill="#000000" font-family="sans-serif" font-size="11" font-weight="bold" lengthAdjust="spacing" textLength="121.4375" x="15" y="516.8564">[&#29992;&#25143;&#19981;&#23384;&#22312;&#25110;&#23494;&#30721;&#38169;&#35823;]</text><polygon fill="#181818" points="391.5,538.625,381.5,542.625,391.5,546.625,387.5,542.625" style="stroke:#181818;stroke-width:1.0;"/><line style="stroke:#181818;stroke-width:1.0;stroke-dasharray:2.0,2.0;" x1="385.5" x2="580.5" y1="542.625" y2="542.625"/><text fill="#000000" font-family="sans-serif" font-size="13" lengthAdjust="spacing" textLength="177" x="397.5" y="537.7686">&#25243;&#20986; BizException("&#30331;&#24405;&#22833;&#36133;")</text><polygon fill="#181818" points="223.5,568.9766,213.5,572.9766,223.5,576.9766,219.5,572.9766" style="stroke:#181818;stroke-width:1.0;"/><line style="stroke:#181818;stroke-width:1.0;stroke-dasharray:2.0,2.0;" x1="217.5" x2="379.5" y1="572.9766" y2="572.9766"/><text fill="#000000" font-family="sans-serif" font-size="13" lengthAdjust="spacing" textLength="137" x="229.5" y="568.1201">HTTP 401 Unauthorized</text><polygon fill="#181818" points="48.5,599.3281,38.5,603.3281,48.5,607.3281,44.5,603.3281" style="stroke:#181818;stroke-width:1.0;"/><line style="stroke:#181818;stroke-width:1.0;stroke-dasharray:2.0,2.0;" x1="42.5" x2="211.5" y1="603.3281" y2="603.3281"/><text fill="#000000" font-family="sans-serif" font-size="13" lengthAdjust="spacing" textLength="125" x="54.5" y="598.4717">&#26174;&#31034;&#8220;&#36134;&#21495;&#25110;&#23494;&#30721;&#38169;&#35823;&#8221;</text><!--SRC=[TPBDRjD058NtynIZh191I42ia5AfDI3-H2gSxBePEKCPv8pDs86s2AbP0A5jQ0K1jKg1MgGe4gGMebMYbARlKcLiPyKhC1wRAe6o7DtlddlkkMCJMyVGRxIzMjVVEkH7xxo3gjzU7Jbztb_dpG5C5YtCu1rZdb2euaSLJ3KChn8qpr0v1G3IR8D1oI0B5e69c4qqOY9gmmH_LVU_kf7ko3cOeqcfSzrWvGiFhOLKGlRSd6oQhjWF58FQpD1rp2IY_4kec3qc6fPbTR8ScfdMDAD2xNlOD2mY72vAC7m2aCl52mU3j_pvRcHlUEnuLHVcSg08qrF25Bm2exgtu_1cXzSTljxbRzQu-yBVgG8124mHr6nUBS0CCaa62LyPFTnmZZxLKDciM0fYfVFGH9Rrn62bPt8uttWjKWdsMe5RZT8EnogXdYhqf43ohFOKK4Cet49mzmajpImgfznOImf89XqhZWK2nR5eHTV5uNGxZe5tDlbsUzXhHAjvdS- -imUWQ4t7AmR73Txy6D5nKCanqPI05GdBs6uK2hFmKZOByxVXENXBpTyLzJ2l411rRtFWj_edozlnXwjjy9LF9yiVVlrS2xe_WgDlmzwX-2q0wzQVhpdirIENNkrzv7BKs0fSTyAbjzBaB_jmXYnTMz2mQHE39XFH3Dxw7kpl9iuoUZbx4HPfU3g3aILS-e_NOF-BkFzVuuLfW6a9_0O0]--></g></svg>